<?xml version="1.0" encoding="utf-8"?>
<!-- Generator: Adobe Illustrator 25.1.0, SVG Export Plug-In . SVG Version: 6.00 Build 0)  -->
<svg version="1.1" id="Layer_1" xmlns="http://www.w3.org/2000/svg" xmlns:xlink="http://www.w3.org/1999/xlink" x="0px" y="0px"
	 viewBox="0 0 2595.3 906" style="enable-background:new 0 0 2595.3 906;" xml:space="preserve">
<style type="text/css">
	.st0{opacity:0.4;fill:#F7F5FC;}
</style>
<path class="st0" d="M158.1,121.4c-0.7,0.9-1.4,1.9-2.1,2.8c-21,27.6-43.4,44.8-86.1,13.9c-3.6-2.6-6.9-5.2-9.8-7.7l-0.5,0.1
	l-17,4.1c-2.2,0.5-4.3-0.8-4.8-3c-0.2-0.7-0.1-1.4,0.1-2l5.3-18l0.1-0.3c-5.3-9.2-6.2-17.9-4.4-26.3c0-0.2,0.1-0.4,0.1-0.6
	c2.6-10.6,9.3-21,17.2-32l4.1-5.7c20.6-28,39.4-47.8,86.2-13.8c27.3,19.8,33.3,37.9,28.9,55.8c-0.1,0.3-0.2,0.6-0.2,1
	c-2.6,9.6-8.2,19.2-15,29C159.4,119.6,158.8,120.5,158.1,121.4z"/>
<path class="st0" d="M317.1,121.4c-0.7,0.9-1.4,1.9-2.1,2.8c-21,27.6-43.4,44.8-86.1,13.9c-3.6-2.6-6.9-5.2-9.8-7.7l-0.5,0.1
	l-17,4.1c-2.2,0.5-4.3-0.8-4.8-3c-0.2-0.7-0.1-1.4,0.1-2l5.3-18l0.1-0.3c-5.3-9.2-6.2-17.9-4.4-26.3c0-0.2,0.1-0.4,0.1-0.6
	c2.6-10.6,9.3-21,17.2-32l4.1-5.7c20.6-28,39.4-47.8,86.2-13.8c27.3,19.8,33.3,37.9,28.9,55.8c-0.1,0.3-0.2,0.6-0.2,1
	c-2.6,9.6-8.2,19.2-15,29C318.4,119.6,317.8,120.5,317.1,121.4z"/>
<path class="st0" d="M472.1,121.4c-0.7,0.9-1.4,1.9-2.1,2.8c-21,27.6-43.4,44.8-86.1,13.9c-3.6-2.6-6.9-5.2-9.8-7.7l-0.5,0.1
	l-17,4.1c-2.2,0.5-4.3-0.8-4.8-3c-0.2-0.7-0.1-1.4,0.1-2l5.3-18l0.1-0.3c-5.3-9.2-6.2-17.9-4.4-26.3c0-0.2,0.1-0.4,0.1-0.6
	c2.6-10.6,9.3-21,17.2-32l4.1-5.7c20.6-28,39.4-47.8,86.2-13.8c27.3,19.8,33.3,37.9,28.9,55.8c-0.1,0.3-0.2,0.6-0.2,1
	c-2.6,9.6-8.2,19.2-15,29C473.4,119.6,472.8,120.5,472.1,121.4z"/>
<path class="st0" d="M627.1,121.4c-0.7,0.9-1.4,1.9-2.1,2.8c-21,27.6-43.4,44.8-86.1,13.9c-3.6-2.6-6.9-5.2-9.8-7.7l-0.5,0.1
	l-17,4.1c-2.2,0.5-4.3-0.8-4.8-3c-0.2-0.7-0.1-1.4,0.1-2l5.3-18l0.1-0.3c-5.3-9.2-6.2-17.9-4.4-26.3c0-0.2,0.1-0.4,0.1-0.6
	c2.6-10.6,9.3-21,17.2-32l4.1-5.7c20.6-28,39.4-47.8,86.2-13.8c27.3,19.8,33.3,37.9,28.9,55.8c-0.1,0.3-0.2,0.6-0.2,1
	c-2.6,9.6-8.2,19.2-15,29C628.4,119.6,627.8,120.5,627.1,121.4z"/>
<path class="st0" d="M782.1,121.4c-0.7,0.9-1.4,1.9-2.1,2.8c-21,27.6-43.4,44.8-86.1,13.9c-3.6-2.6-6.9-5.2-9.8-7.7l-0.5,0.1
	l-17,4.1c-2.2,0.5-4.3-0.8-4.8-3c-0.2-0.7-0.1-1.4,0.1-2l5.3-18l0.1-0.3c-5.3-9.2-6.2-17.9-4.4-26.3c0-0.2,0.1-0.4,0.1-0.6
	c2.6-10.6,9.3-21,17.2-32l4.1-5.7c20.6-28,39.4-47.8,86.2-13.8c27.3,19.8,33.3,37.9,28.9,55.8c-0.1,0.3-0.2,0.6-0.2,1
	c-2.6,9.6-8.2,19.2-15,29C783.4,119.6,782.8,120.5,782.1,121.4z"/>
<path class="st0" d="M937.1,121.4c-0.7,0.9-1.4,1.9-2.1,2.8c-21,27.6-43.4,44.8-86.1,13.9c-3.6-2.6-6.9-5.2-9.8-7.7l-0.5,0.1
	l-17,4.1c-2.2,0.5-4.3-0.8-4.8-3c-0.2-0.7-0.1-1.4,0.1-2l5.3-18l0.1-0.3c-5.3-9.2-6.2-17.9-4.4-26.3c0-0.2,0.1-0.4,0.1-0.6
	c2.6-10.6,9.3-21,17.2-32l4.1-5.7c20.6-28,39.4-47.8,86.2-13.8c27.3,19.8,33.3,37.9,28.9,55.8c-0.1,0.3-0.2,0.6-0.2,1
	c-2.6,9.6-8.2,19.2-15,29C938.4,119.6,937.8,120.5,937.1,121.4z"/>
<path class="st0" d="M1092.1,121.4c-0.7,0.9-1.4,1.9-2.1,2.8c-21,27.6-43.4,44.8-86.1,13.9c-3.6-2.6-6.9-5.2-9.8-7.7l-0.5,0.1
	l-17,4.1c-2.2,0.5-4.3-0.8-4.8-3c-0.2-0.7-0.1-1.4,0.1-2l5.3-18l0.1-0.3c-5.3-9.2-6.2-17.9-4.4-26.3c0-0.2,0.1-0.4,0.1-0.6
	c2.6-10.6,9.3-21,17.2-32l4.1-5.7c20.6-28,39.4-47.8,86.2-13.8c27.3,19.8,33.3,37.9,28.9,55.8c-0.1,0.3-0.2,0.6-0.2,1
	c-2.6,9.6-8.2,19.2-15,29C1093.4,119.6,1092.8,120.5,1092.1,121.4z"/>
<path class="st0" d="M1247.1,121.4c-0.7,0.9-1.4,1.9-2.1,2.8c-21,27.6-43.4,44.8-86.1,13.9c-3.6-2.6-6.9-5.2-9.8-7.7l-0.5,0.1
	l-17,4.1c-2.2,0.5-4.3-0.8-4.8-3c-0.2-0.7-0.1-1.4,0.1-2l5.3-18l0.1-0.3c-5.3-9.2-6.2-17.9-4.4-26.3c0-0.2,0.1-0.4,0.1-0.6
	c2.6-10.6,9.3-21,17.2-32l4.1-5.7c20.6-28,39.4-47.8,86.2-13.8c27.3,19.8,33.3,37.9,28.9,55.8c-0.1,0.3-0.2,0.6-0.2,1
	c-2.6,9.6-8.2,19.2-15,29C1248.4,119.6,1247.8,120.5,1247.1,121.4z"/>
<path class="st0" d="M1402.1,121.4c-0.7,0.9-1.4,1.9-2.1,2.8c-21,27.6-43.4,44.8-86.1,13.9c-3.6-2.6-6.9-5.2-9.8-7.7l-0.5,0.1
	l-17,4.1c-2.2,0.5-4.3-0.8-4.8-3c-0.2-0.7-0.1-1.4,0.1-2l5.3-18l0.1-0.3c-5.3-9.2-6.2-17.9-4.4-26.3c0-0.2,0.1-0.4,0.1-0.6
	c2.6-10.6,9.3-21,17.2-32l4.1-5.7c20.6-28,39.4-47.8,86.2-13.8c27.3,19.8,33.3,37.9,28.9,55.8c-0.1,0.3-0.2,0.6-0.2,1
	c-2.6,9.6-8.2,19.2-15,29C1403.4,119.6,1402.8,120.5,1402.1,121.4z"/>
<path class="st0" d="M1557.1,121.4c-0.7,0.9-1.4,1.9-2.1,2.8c-21,27.6-43.4,44.8-86.1,13.9c-3.6-2.6-6.9-5.2-9.8-7.7l-0.5,0.1
	l-17,4.1c-2.2,0.5-4.3-0.8-4.8-3c-0.2-0.7-0.1-1.4,0.1-2l5.3-18l0.1-0.3c-5.3-9.2-6.2-17.9-4.4-26.3c0-0.2,0.1-0.4,0.1-0.6
	c2.6-10.6,9.3-21,17.2-32l4.1-5.7c20.6-28,39.4-47.8,86.2-13.8c27.3,19.8,33.3,37.9,28.9,55.8c-0.1,0.3-0.2,0.6-0.2,1
	c-2.6,9.6-8.2,19.2-15,29C1558.4,119.6,1557.8,120.5,1557.1,121.4z"/>
<path class="st0" d="M1712.1,121.4c-0.7,0.9-1.4,1.9-2.1,2.8c-21,27.6-43.4,44.8-86.1,13.9c-3.6-2.6-6.9-5.2-9.8-7.7l-0.5,0.1
	l-17,4.1c-2.2,0.5-4.3-0.8-4.8-3c-0.2-0.7-0.1-1.4,0.1-2l5.3-18l0.1-0.3c-5.3-9.2-6.2-17.9-4.4-26.3c0-0.2,0.1-0.4,0.1-0.6
	c2.6-10.6,9.3-21,17.2-32l4.1-5.7c20.6-28,39.4-47.8,86.2-13.8c27.3,19.8,33.3,37.9,28.9,55.8c-0.1,0.3-0.2,0.6-0.2,1
	c-2.6,9.6-8.2,19.2-15,29C1713.4,119.6,1712.8,120.5,1712.1,121.4z"/>
<path class="st0" d="M1867.1,121.4c-0.7,0.9-1.4,1.9-2.1,2.8c-21,27.6-43.4,44.8-86.1,13.9c-3.6-2.6-6.9-5.2-9.8-7.7l-0.5,0.1
	l-17,4.1c-2.2,0.5-4.3-0.8-4.8-3c-0.2-0.7-0.1-1.4,0.1-2l5.3-18l0.1-0.3c-5.3-9.2-6.2-17.9-4.4-26.3c0-0.2,0.1-0.4,0.1-0.6
	c2.6-10.6,9.3-21,17.2-32l4.1-5.7c20.6-28,39.4-47.8,86.2-13.8c27.3,19.8,33.3,37.9,28.9,55.8c-0.1,0.3-0.2,0.6-0.2,1
	c-2.6,9.6-8.2,19.2-15,29C1868.4,119.6,1867.8,120.5,1867.1,121.4z"/>
<path class="st0" d="M219.1,264.7c-0.7,0.9-1.4,1.9-2.1,2.8c-21,27.6-43.4,44.8-86.1,13.9c-3.6-2.6-6.9-5.2-9.8-7.7l-0.5,0.1
	l-17,4.1c-2.2,0.5-4.3-0.8-4.8-3c-0.2-0.7-0.1-1.4,0.1-2l5.3-18l0.1-0.3c-5.3-9.2-6.2-17.9-4.4-26.3c0-0.2,0.1-0.4,0.1-0.6
	c2.6-10.6,9.3-21,17.2-32l4.1-5.7c20.6-28,39.4-47.8,86.2-13.8c27.3,19.8,33.3,37.9,28.9,55.8c-0.1,0.3-0.2,0.6-0.2,1
	c-2.6,9.6-8.2,19.2-15,29C220.4,262.8,219.8,263.7,219.1,264.7z"/>
<path class="st0" d="M378.1,264.7c-0.7,0.9-1.4,1.9-2.1,2.8c-21,27.6-43.4,44.8-86.1,13.9c-3.6-2.6-6.9-5.2-9.8-7.7l-0.5,0.1
	l-17,4.1c-2.2,0.5-4.3-0.8-4.8-3c-0.2-0.7-0.1-1.4,0.1-2l5.3-18l0.1-0.3c-5.3-9.2-6.2-17.9-4.4-26.3c0-0.2,0.1-0.4,0.1-0.6
	c2.6-10.6,9.3-21,17.2-32l4.1-5.7c20.6-28,39.4-47.8,86.2-13.8c27.3,19.8,33.3,37.9,28.9,55.8c-0.1,0.3-0.2,0.6-0.2,1
	c-2.6,9.6-8.2,19.2-15,29C379.4,262.8,378.8,263.7,378.1,264.7z"/>
<path class="st0" d="M533.1,264.7c-0.7,0.9-1.4,1.9-2.1,2.8c-21,27.6-43.4,44.8-86.1,13.9c-3.6-2.6-6.9-5.2-9.8-7.7l-0.5,0.1
	l-17,4.1c-2.2,0.5-4.3-0.8-4.8-3c-0.2-0.7-0.1-1.4,0.1-2l5.3-18l0.1-0.3c-5.3-9.2-6.2-17.9-4.4-26.3c0-0.2,0.1-0.4,0.1-0.6
	c2.6-10.6,9.3-21,17.2-32l4.1-5.7c20.6-28,39.4-47.8,86.2-13.8c27.3,19.8,33.3,37.9,28.9,55.8c-0.1,0.3-0.2,0.6-0.2,1
	c-2.6,9.6-8.2,19.2-15,29C534.4,262.8,533.8,263.7,533.1,264.7z"/>
<path class="st0" d="M688.1,264.7c-0.7,0.9-1.4,1.9-2.1,2.8c-21,27.6-43.4,44.8-86.1,13.9c-3.6-2.6-6.9-5.2-9.8-7.7l-0.5,0.1
	l-17,4.1c-2.2,0.5-4.3-0.8-4.8-3c-0.2-0.7-0.1-1.4,0.1-2l5.3-18l0.1-0.3c-5.3-9.2-6.2-17.9-4.4-26.3c0-0.2,0.1-0.4,0.1-0.6
	c2.6-10.6,9.3-21,17.2-32l4.1-5.7c20.6-28,39.4-47.8,86.2-13.8c27.3,19.8,33.3,37.9,28.9,55.8c-0.1,0.3-0.2,0.6-0.2,1
	c-2.6,9.6-8.2,19.2-15,29C689.4,262.8,688.8,263.7,688.1,264.7z"/>
<path class="st0" d="M843.1,264.7c-0.7,0.9-1.4,1.9-2.1,2.8c-21,27.6-43.4,44.8-86.1,13.9c-3.6-2.6-6.9-5.2-9.8-7.7l-0.5,0.1
	l-17,4.1c-2.2,0.5-4.3-0.8-4.8-3c-0.2-0.7-0.1-1.4,0.1-2l5.3-18l0.1-0.3c-5.3-9.2-6.2-17.9-4.4-26.3c0-0.2,0.1-0.4,0.1-0.6
	c2.6-10.6,9.3-21,17.2-32l4.1-5.7c20.6-28,39.4-47.8,86.2-13.8c27.3,19.8,33.3,37.9,28.9,55.8c-0.1,0.3-0.2,0.6-0.2,1
	c-2.6,9.6-8.2,19.2-15,29C844.4,262.8,843.8,263.7,843.1,264.7z"/>
<path class="st0" d="M998.1,264.7c-0.7,0.9-1.4,1.9-2.1,2.8c-21,27.6-43.4,44.8-86.1,13.9c-3.6-2.6-6.9-5.2-9.8-7.7l-0.5,0.1
	l-17,4.1c-2.2,0.5-4.3-0.8-4.8-3c-0.2-0.7-0.1-1.4,0.1-2l5.3-18l0.1-0.3c-5.3-9.2-6.2-17.9-4.4-26.3c0-0.2,0.1-0.4,0.1-0.6
	c2.6-10.6,9.3-21,17.2-32l4.1-5.7c20.6-28,39.4-47.8,86.2-13.8c27.3,19.8,33.3,37.9,28.9,55.8c-0.1,0.3-0.2,0.6-0.2,1
	c-2.6,9.6-8.2,19.2-15,29C999.4,262.8,998.8,263.7,998.1,264.7z"/>
<path class="st0" d="M1153.1,264.7c-0.7,0.9-1.4,1.9-2.1,2.8c-21,27.6-43.4,44.8-86.1,13.9c-3.6-2.6-6.9-5.2-9.8-7.7l-0.5,0.1
	l-17,4.1c-2.2,0.5-4.3-0.8-4.8-3c-0.2-0.7-0.1-1.4,0.1-2l5.3-18l0.1-0.3c-5.3-9.2-6.2-17.9-4.4-26.3c0-0.2,0.1-0.4,0.1-0.6
	c2.6-10.6,9.3-21,17.2-32l4.1-5.7c20.6-28,39.4-47.8,86.2-13.8c27.3,19.8,33.3,37.9,28.9,55.8c-0.1,0.3-0.2,0.6-0.2,1
	c-2.6,9.6-8.2,19.2-15,29C1154.4,262.8,1153.8,263.7,1153.1,264.7z"/>
<path class="st0" d="M1308.1,264.7c-0.7,0.9-1.4,1.9-2.1,2.8c-21,27.6-43.4,44.8-86.1,13.9c-3.6-2.6-6.9-5.2-9.8-7.7l-0.5,0.1
	l-17,4.1c-2.2,0.5-4.3-0.8-4.8-3c-0.2-0.7-0.1-1.4,0.1-2l5.3-18l0.1-0.3c-5.3-9.2-6.2-17.9-4.4-26.3c0-0.2,0.1-0.4,0.1-0.6
	c2.6-10.6,9.3-21,17.2-32l4.1-5.7c20.6-28,39.4-47.8,86.2-13.8c27.3,19.8,33.3,37.9,28.9,55.8c-0.1,0.3-0.2,0.6-0.2,1
	c-2.6,9.6-8.2,19.2-15,29C1309.4,262.8,1308.8,263.7,1308.1,264.7z"/>
<path class="st0" d="M1463.1,264.7c-0.7,0.9-1.4,1.9-2.1,2.8c-21,27.6-43.4,44.8-86.1,13.9c-3.6-2.6-6.9-5.2-9.8-7.7l-0.5,0.1
	l-17,4.1c-2.2,0.5-4.3-0.8-4.8-3c-0.2-0.7-0.1-1.4,0.1-2l5.3-18l0.1-0.3c-5.3-9.2-6.2-17.9-4.4-26.3c0-0.2,0.1-0.4,0.1-0.6
	c2.6-10.6,9.3-21,17.2-32l4.1-5.7c20.6-28,39.4-47.8,86.2-13.8c27.3,19.8,33.3,37.9,28.9,55.8c-0.1,0.3-0.2,0.6-0.2,1
	c-2.6,9.6-8.2,19.2-15,29C1464.4,262.8,1463.8,263.7,1463.1,264.7z"/>
<path class="st0" d="M1618.1,264.7c-0.7,0.9-1.4,1.9-2.1,2.8c-21,27.6-43.4,44.8-86.1,13.9c-3.6-2.6-6.9-5.2-9.8-7.7l-0.5,0.1
	l-17,4.1c-2.2,0.5-4.3-0.8-4.8-3c-0.2-0.7-0.1-1.4,0.1-2l5.3-18l0.1-0.3c-5.3-9.2-6.2-17.9-4.4-26.3c0-0.2,0.1-0.4,0.1-0.6
	c2.6-10.6,9.3-21,17.2-32l4.1-5.7c20.6-28,39.4-47.8,86.2-13.8c27.3,19.8,33.3,37.9,28.9,55.8c-0.1,0.3-0.2,0.6-0.2,1
	c-2.6,9.6-8.2,19.2-15,29C1619.4,262.8,1618.8,263.7,1618.1,264.7z"/>
<path class="st0" d="M1773.1,264.7c-0.7,0.9-1.4,1.9-2.1,2.8c-21,27.6-43.4,44.8-86.1,13.9c-3.6-2.6-6.9-5.2-9.8-7.7l-0.5,0.1
	l-17,4.1c-2.2,0.5-4.3-0.8-4.8-3c-0.2-0.7-0.1-1.4,0.1-2l5.3-18l0.1-0.3c-5.3-9.2-6.2-17.9-4.4-26.3c0-0.2,0.1-0.4,0.1-0.6
	c2.6-10.6,9.3-21,17.2-32l4.1-5.7c20.6-28,39.4-47.8,86.2-13.8c27.3,19.8,33.3,37.9,28.9,55.8c-0.1,0.3-0.2,0.6-0.2,1
	c-2.6,9.6-8.2,19.2-15,29C1774.4,262.8,1773.8,263.7,1773.1,264.7z"/>
<path class="st0" d="M1928.1,264.7c-0.7,0.9-1.4,1.9-2.1,2.8c-21,27.6-43.4,44.8-86.1,13.9c-3.6-2.6-6.9-5.2-9.8-7.7l-0.5,0.1
	l-17,4.1c-2.2,0.5-4.3-0.8-4.8-3c-0.2-0.7-0.1-1.4,0.1-2l5.3-18l0.1-0.3c-5.3-9.2-6.2-17.9-4.4-26.3c0-0.2,0.1-0.4,0.1-0.6
	c2.6-10.6,9.3-21,17.2-32l4.1-5.7c20.6-28,39.4-47.8,86.2-13.8c27.3,19.8,33.3,37.9,28.9,55.8c-0.1,0.3-0.2,0.6-0.2,1
	c-2.6,9.6-8.2,19.2-15,29C1929.4,262.8,1928.8,263.7,1928.1,264.7z"/>
<path class="st0" d="M158.1,405.3c-0.7,0.9-1.4,1.9-2.1,2.8c-21,27.6-43.4,44.8-86.1,13.9c-3.6-2.6-6.9-5.2-9.8-7.7l-0.5,0.1
	l-17,4.1c-2.2,0.5-4.3-0.8-4.8-3c-0.2-0.7-0.1-1.4,0.1-2l5.3-18l0.1-0.3c-5.3-9.2-6.2-17.9-4.4-26.3c0-0.2,0.1-0.4,0.1-0.6
	c2.6-10.6,9.3-21,17.2-32l4.1-5.7c20.6-28,39.4-47.8,86.2-13.8c27.3,19.8,33.3,37.9,28.9,55.8c-0.1,0.3-0.2,0.6-0.2,1
	c-2.6,9.6-8.2,19.2-15,29C159.4,403.4,158.8,404.3,158.1,405.3z"/>
<path class="st0" d="M317.1,405.3c-0.7,0.9-1.4,1.9-2.1,2.8c-21,27.6-43.4,44.8-86.1,13.9c-3.6-2.6-6.9-5.2-9.8-7.7l-0.5,0.1
	l-17,4.1c-2.2,0.5-4.3-0.8-4.8-3c-0.2-0.7-0.1-1.4,0.1-2l5.3-18l0.1-0.3c-5.3-9.2-6.2-17.9-4.4-26.3c0-0.2,0.1-0.4,0.1-0.6
	c2.6-10.6,9.3-21,17.2-32l4.1-5.7c20.6-28,39.4-47.8,86.2-13.8c27.3,19.8,33.3,37.9,28.9,55.8c-0.1,0.3-0.2,0.6-0.2,1
	c-2.6,9.6-8.2,19.2-15,29C318.4,403.4,317.8,404.3,317.1,405.3z"/>
<path class="st0" d="M472.1,405.3c-0.7,0.9-1.4,1.9-2.1,2.8c-21,27.6-43.4,44.8-86.1,13.9c-3.6-2.6-6.9-5.2-9.8-7.7l-0.5,0.1
	l-17,4.1c-2.2,0.5-4.3-0.8-4.8-3c-0.2-0.7-0.1-1.4,0.1-2l5.3-18l0.1-0.3c-5.3-9.2-6.2-17.9-4.4-26.3c0-0.2,0.1-0.4,0.1-0.6
	c2.6-10.6,9.3-21,17.2-32l4.1-5.7c20.6-28,39.4-47.8,86.2-13.8c27.3,19.8,33.3,37.9,28.9,55.8c-0.1,0.3-0.2,0.6-0.2,1
	c-2.6,9.6-8.2,19.2-15,29C473.4,403.4,472.8,404.3,472.1,405.3z"/>
<path class="st0" d="M627.1,405.3c-0.7,0.9-1.4,1.9-2.1,2.8c-21,27.6-43.4,44.8-86.1,13.9c-3.6-2.6-6.9-5.2-9.8-7.7l-0.5,0.1
	l-17,4.1c-2.2,0.5-4.3-0.8-4.8-3c-0.2-0.7-0.1-1.4,0.1-2l5.3-18l0.1-0.3c-5.3-9.2-6.2-17.9-4.4-26.3c0-0.2,0.1-0.4,0.1-0.6
	c2.6-10.6,9.3-21,17.2-32l4.1-5.7c20.6-28,39.4-47.8,86.2-13.8c27.3,19.8,33.3,37.9,28.9,55.8c-0.1,0.3-0.2,0.6-0.2,1
	c-2.6,9.6-8.2,19.2-15,29C628.4,403.4,627.8,404.3,627.1,405.3z"/>
<path class="st0" d="M782.1,405.3c-0.7,0.9-1.4,1.9-2.1,2.8c-21,27.6-43.4,44.8-86.1,13.9c-3.6-2.6-6.9-5.2-9.8-7.7l-0.5,0.1
	l-17,4.1c-2.2,0.5-4.3-0.8-4.8-3c-0.2-0.7-0.1-1.4,0.1-2l5.3-18l0.1-0.3c-5.3-9.2-6.2-17.9-4.4-26.3c0-0.2,0.1-0.4,0.1-0.6
	c2.6-10.6,9.3-21,17.2-32l4.1-5.7c20.6-28,39.4-47.8,86.2-13.8c27.3,19.8,33.3,37.9,28.9,55.8c-0.1,0.3-0.2,0.6-0.2,1
	c-2.6,9.6-8.2,19.2-15,29C783.4,403.4,782.8,404.3,782.1,405.3z"/>
<path class="st0" d="M937.1,405.3c-0.7,0.9-1.4,1.9-2.1,2.8c-21,27.6-43.4,44.8-86.1,13.9c-3.6-2.6-6.9-5.2-9.8-7.7l-0.5,0.1
	l-17,4.1c-2.2,0.5-4.3-0.8-4.8-3c-0.2-0.7-0.1-1.4,0.1-2l5.3-18l0.1-0.3c-5.3-9.2-6.2-17.9-4.4-26.3c0-0.2,0.1-0.4,0.1-0.6
	c2.6-10.6,9.3-21,17.2-32l4.1-5.7c20.6-28,39.4-47.8,86.2-13.8c27.3,19.8,33.3,37.9,28.9,55.8c-0.1,0.3-0.2,0.6-0.2,1
	c-2.6,9.6-8.2,19.2-15,29C938.4,403.4,937.8,404.3,937.1,405.3z"/>
<path class="st0" d="M1092.1,405.3c-0.7,0.9-1.4,1.9-2.1,2.8c-21,27.6-43.4,44.8-86.1,13.9c-3.6-2.6-6.9-5.2-9.8-7.7l-0.5,0.1
	l-17,4.1c-2.2,0.5-4.3-0.8-4.8-3c-0.2-0.7-0.1-1.4,0.1-2l5.3-18l0.1-0.3c-5.3-9.2-6.2-17.9-4.4-26.3c0-0.2,0.1-0.4,0.1-0.6
	c2.6-10.6,9.3-21,17.2-32l4.1-5.7c20.6-28,39.4-47.8,86.2-13.8c27.3,19.8,33.3,37.9,28.9,55.8c-0.1,0.3-0.2,0.6-0.2,1
	c-2.6,9.6-8.2,19.2-15,29C1093.4,403.4,1092.8,404.3,1092.1,405.3z"/>
<path class="st0" d="M1247.1,405.3c-0.7,0.9-1.4,1.9-2.1,2.8c-21,27.6-43.4,44.8-86.1,13.9c-3.6-2.6-6.9-5.2-9.8-7.7l-0.5,0.1
	l-17,4.1c-2.2,0.5-4.3-0.8-4.8-3c-0.2-0.7-0.1-1.4,0.1-2l5.3-18l0.1-0.3c-5.3-9.2-6.2-17.9-4.4-26.3c0-0.2,0.1-0.4,0.1-0.6
	c2.6-10.6,9.3-21,17.2-32l4.1-5.7c20.6-28,39.4-47.8,86.2-13.8c27.3,19.8,33.3,37.9,28.9,55.8c-0.1,0.3-0.2,0.6-0.2,1
	c-2.6,9.6-8.2,19.2-15,29C1248.4,403.4,1247.8,404.3,1247.1,405.3z"/>
<path class="st0" d="M1402.1,405.3c-0.7,0.9-1.4,1.9-2.1,2.8c-21,27.6-43.4,44.8-86.1,13.9c-3.6-2.6-6.9-5.2-9.8-7.7l-0.5,0.1
	l-17,4.1c-2.2,0.5-4.3-0.8-4.8-3c-0.2-0.7-0.1-1.4,0.1-2l5.3-18l0.1-0.3c-5.3-9.2-6.2-17.9-4.4-26.3c0-0.2,0.1-0.4,0.1-0.6
	c2.6-10.6,9.3-21,17.2-32l4.1-5.7c20.6-28,39.4-47.8,86.2-13.8c27.3,19.8,33.3,37.9,28.9,55.8c-0.1,0.3-0.2,0.6-0.2,1
	c-2.6,9.6-8.2,19.2-15,29C1403.4,403.4,1402.8,404.3,1402.1,405.3z"/>
<path class="st0" d="M1557.1,405.3c-0.7,0.9-1.4,1.9-2.1,2.8c-21,27.6-43.4,44.8-86.1,13.9c-3.6-2.6-6.9-5.2-9.8-7.7l-0.5,0.1
	l-17,4.1c-2.2,0.5-4.3-0.8-4.8-3c-0.2-0.7-0.1-1.4,0.1-2l5.3-18l0.1-0.3c-5.3-9.2-6.2-17.9-4.4-26.3c0-0.2,0.1-0.4,0.1-0.6
	c2.6-10.6,9.3-21,17.2-32l4.1-5.7c20.6-28,39.4-47.8,86.2-13.8c27.3,19.8,33.3,37.9,28.9,55.8c-0.1,0.3-0.2,0.6-0.2,1
	c-2.6,9.6-8.2,19.2-15,29C1558.4,403.4,1557.8,404.3,1557.1,405.3z"/>
<path class="st0" d="M1712.1,405.3c-0.7,0.9-1.4,1.9-2.1,2.8c-21,27.6-43.4,44.8-86.1,13.9c-3.6-2.6-6.9-5.2-9.8-7.7l-0.5,0.1
	l-17,4.1c-2.2,0.5-4.3-0.8-4.8-3c-0.2-0.7-0.1-1.4,0.1-2l5.3-18l0.1-0.3c-5.3-9.2-6.2-17.9-4.4-26.3c0-0.2,0.1-0.4,0.1-0.6
	c2.6-10.6,9.3-21,17.2-32l4.1-5.7c20.6-28,39.4-47.8,86.2-13.8c27.3,19.8,33.3,37.9,28.9,55.8c-0.1,0.3-0.2,0.6-0.2,1
	c-2.6,9.6-8.2,19.2-15,29C1713.4,403.4,1712.8,404.3,1712.1,405.3z"/>
<path class="st0" d="M1867.1,405.3c-0.7,0.9-1.4,1.9-2.1,2.8c-21,27.6-43.4,44.8-86.1,13.9c-3.6-2.6-6.9-5.2-9.8-7.7l-0.5,0.1
	l-17,4.1c-2.2,0.5-4.3-0.8-4.8-3c-0.2-0.7-0.1-1.4,0.1-2l5.3-18l0.1-0.3c-5.3-9.2-6.2-17.9-4.4-26.3c0-0.2,0.1-0.4,0.1-0.6
	c2.6-10.6,9.3-21,17.2-32l4.1-5.7c20.6-28,39.4-47.8,86.2-13.8c27.3,19.8,33.3,37.9,28.9,55.8c-0.1,0.3-0.2,0.6-0.2,1
	c-2.6,9.6-8.2,19.2-15,29C1868.4,403.4,1867.8,404.3,1867.1,405.3z"/>
<path class="st0" d="M219.1,548.5c-0.7,0.9-1.4,1.9-2.1,2.8c-21,27.6-43.4,44.8-86.1,13.9c-3.6-2.6-6.9-5.2-9.8-7.7l-0.5,0.1
	l-17,4.1c-2.2,0.5-4.3-0.8-4.8-3c-0.2-0.7-0.1-1.4,0.1-2l5.3-18l0.1-0.3c-5.3-9.2-6.2-17.9-4.4-26.3c0-0.2,0.1-0.4,0.1-0.6
	c2.6-10.6,9.3-21,17.2-32l4.1-5.7c20.6-28,39.4-47.8,86.2-13.8c27.3,19.8,33.3,37.9,28.9,55.8c-0.1,0.3-0.2,0.6-0.2,1
	c-2.6,9.6-8.2,19.2-15,29C220.4,546.6,219.8,547.5,219.1,548.5z"/>
<path class="st0" d="M378.1,548.5c-0.7,0.9-1.4,1.9-2.1,2.8c-21,27.6-43.4,44.8-86.1,13.9c-3.6-2.6-6.9-5.2-9.8-7.7l-0.5,0.1
	l-17,4.1c-2.2,0.5-4.3-0.8-4.8-3c-0.2-0.7-0.1-1.4,0.1-2l5.3-18l0.1-0.3c-5.3-9.2-6.2-17.9-4.4-26.3c0-0.2,0.1-0.4,0.1-0.6
	c2.6-10.6,9.3-21,17.2-32l4.1-5.7c20.6-28,39.4-47.8,86.2-13.8c27.3,19.8,33.3,37.9,28.9,55.8c-0.1,0.3-0.2,0.6-0.2,1
	c-2.6,9.6-8.2,19.2-15,29C379.4,546.6,378.8,547.5,378.1,548.5z"/>
<path class="st0" d="M533.1,548.5c-0.7,0.9-1.4,1.9-2.1,2.8c-21,27.6-43.4,44.8-86.1,13.9c-3.6-2.6-6.9-5.2-9.8-7.7l-0.5,0.1
	l-17,4.1c-2.2,0.5-4.3-0.8-4.8-3c-0.2-0.7-0.1-1.4,0.1-2l5.3-18l0.1-0.3c-5.3-9.2-6.2-17.9-4.4-26.3c0-0.2,0.1-0.4,0.1-0.6
	c2.6-10.6,9.3-21,17.2-32l4.1-5.7c20.6-28,39.4-47.8,86.2-13.8c27.3,19.8,33.3,37.9,28.9,55.8c-0.1,0.3-0.2,0.6-0.2,1
	c-2.6,9.6-8.2,19.2-15,29C534.4,546.6,533.8,547.5,533.1,548.5z"/>
<path class="st0" d="M688.1,548.5c-0.7,0.9-1.4,1.9-2.1,2.8c-21,27.6-43.4,44.8-86.1,13.9c-3.6-2.6-6.9-5.2-9.8-7.7l-0.5,0.1
	l-17,4.1c-2.2,0.5-4.3-0.8-4.8-3c-0.2-0.7-0.1-1.4,0.1-2l5.3-18l0.1-0.3c-5.3-9.2-6.2-17.9-4.4-26.3c0-0.2,0.1-0.4,0.1-0.6
	c2.6-10.6,9.3-21,17.2-32l4.1-5.7c20.6-28,39.4-47.8,86.2-13.8c27.3,19.8,33.3,37.9,28.9,55.8c-0.1,0.3-0.2,0.6-0.2,1
	c-2.6,9.6-8.2,19.2-15,29C689.4,546.6,688.8,547.5,688.1,548.5z"/>
<path class="st0" d="M843.1,548.5c-0.7,0.9-1.4,1.9-2.1,2.8c-21,27.6-43.4,44.8-86.1,13.9c-3.6-2.6-6.9-5.2-9.8-7.7l-0.5,0.1
	l-17,4.1c-2.2,0.5-4.3-0.8-4.8-3c-0.2-0.7-0.1-1.4,0.1-2l5.3-18l0.1-0.3c-5.3-9.2-6.2-17.9-4.4-26.3c0-0.2,0.1-0.4,0.1-0.6
	c2.6-10.6,9.3-21,17.2-32l4.1-5.7c20.6-28,39.4-47.8,86.2-13.8c27.3,19.8,33.3,37.9,28.9,55.8c-0.1,0.3-0.2,0.6-0.2,1
	c-2.6,9.6-8.2,19.2-15,29C844.4,546.6,843.8,547.5,843.1,548.5z"/>
<path class="st0" d="M998.1,548.5c-0.7,0.9-1.4,1.9-2.1,2.8c-21,27.6-43.4,44.8-86.1,13.9c-3.6-2.6-6.9-5.2-9.8-7.7l-0.5,0.1
	l-17,4.1c-2.2,0.5-4.3-0.8-4.8-3c-0.2-0.7-0.1-1.4,0.1-2l5.3-18l0.1-0.3c-5.3-9.2-6.2-17.9-4.4-26.3c0-0.2,0.1-0.4,0.1-0.6
	c2.6-10.6,9.3-21,17.2-32l4.1-5.7c20.6-28,39.4-47.8,86.2-13.8c27.3,19.8,33.3,37.9,28.9,55.8c-0.1,0.3-0.2,0.6-0.2,1
	c-2.6,9.6-8.2,19.2-15,29C999.4,546.6,998.8,547.5,998.1,548.5z"/>
<path class="st0" d="M1153.1,548.5c-0.7,0.9-1.4,1.9-2.1,2.8c-21,27.6-43.4,44.8-86.1,13.9c-3.6-2.6-6.9-5.2-9.8-7.7l-0.5,0.1
	l-17,4.1c-2.2,0.5-4.3-0.8-4.8-3c-0.2-0.7-0.1-1.4,0.1-2l5.3-18l0.1-0.3c-5.3-9.2-6.2-17.9-4.4-26.3c0-0.2,0.1-0.4,0.1-0.6
	c2.6-10.6,9.3-21,17.2-32l4.1-5.7c20.6-28,39.4-47.8,86.2-13.8c27.3,19.8,33.3,37.9,28.9,55.8c-0.1,0.3-0.2,0.6-0.2,1
	c-2.6,9.6-8.2,19.2-15,29C1154.4,546.6,1153.8,547.5,1153.1,548.5z"/>
<path class="st0" d="M1308.1,548.5c-0.7,0.9-1.4,1.9-2.1,2.8c-21,27.6-43.4,44.8-86.1,13.9c-3.6-2.6-6.9-5.2-9.8-7.7l-0.5,0.1
	l-17,4.1c-2.2,0.5-4.3-0.8-4.8-3c-0.2-0.7-0.1-1.4,0.1-2l5.3-18l0.1-0.3c-5.3-9.2-6.2-17.9-4.4-26.3c0-0.2,0.1-0.4,0.1-0.6
	c2.6-10.6,9.3-21,17.2-32l4.1-5.7c20.6-28,39.4-47.8,86.2-13.8c27.3,19.8,33.3,37.9,28.9,55.8c-0.1,0.3-0.2,0.6-0.2,1
	c-2.6,9.6-8.2,19.2-15,29C1309.4,546.6,1308.8,547.5,1308.1,548.5z"/>
<path class="st0" d="M1463.1,548.5c-0.7,0.9-1.4,1.9-2.1,2.8c-21,27.6-43.4,44.8-86.1,13.9c-3.6-2.6-6.9-5.2-9.8-7.7l-0.5,0.1
	l-17,4.1c-2.2,0.5-4.3-0.8-4.8-3c-0.2-0.7-0.1-1.4,0.1-2l5.3-18l0.1-0.3c-5.3-9.2-6.2-17.9-4.4-26.3c0-0.2,0.1-0.4,0.1-0.6
	c2.6-10.6,9.3-21,17.2-32l4.1-5.7c20.6-28,39.4-47.8,86.2-13.8c27.3,19.8,33.3,37.9,28.9,55.8c-0.1,0.3-0.2,0.6-0.2,1
	c-2.6,9.6-8.2,19.2-15,29C1464.4,546.6,1463.8,547.5,1463.1,548.5z"/>
<path class="st0" d="M1618.1,548.5c-0.7,0.9-1.4,1.9-2.1,2.8c-21,27.6-43.4,44.8-86.1,13.9c-3.6-2.6-6.9-5.2-9.8-7.7l-0.5,0.1
	l-17,4.1c-2.2,0.5-4.3-0.8-4.8-3c-0.2-0.7-0.1-1.4,0.1-2l5.3-18l0.1-0.3c-5.3-9.2-6.2-17.9-4.4-26.3c0-0.2,0.1-0.4,0.1-0.6
	c2.6-10.6,9.3-21,17.2-32l4.1-5.7c20.6-28,39.4-47.8,86.2-13.8c27.3,19.8,33.3,37.9,28.9,55.8c-0.1,0.3-0.2,0.6-0.2,1
	c-2.6,9.6-8.2,19.2-15,29C1619.4,546.6,1618.8,547.5,1618.1,548.5z"/>
<path class="st0" d="M1773.1,548.5c-0.7,0.9-1.4,1.9-2.1,2.8c-21,27.6-43.4,44.8-86.1,13.9c-3.6-2.6-6.9-5.2-9.8-7.7l-0.5,0.1
	l-17,4.1c-2.2,0.5-4.3-0.8-4.8-3c-0.2-0.7-0.1-1.4,0.1-2l5.3-18l0.1-0.3c-5.3-9.2-6.2-17.9-4.4-26.3c0-0.2,0.1-0.4,0.1-0.6
	c2.6-10.6,9.3-21,17.2-32l4.1-5.7c20.6-28,39.4-47.8,86.2-13.8c27.3,19.8,33.3,37.9,28.9,55.8c-0.1,0.3-0.2,0.6-0.2,1
	c-2.6,9.6-8.2,19.2-15,29C1774.4,546.6,1773.8,547.5,1773.1,548.5z"/>
<path class="st0" d="M1928.1,548.5c-0.7,0.9-1.4,1.9-2.1,2.8c-21,27.6-43.4,44.8-86.1,13.9c-3.6-2.6-6.9-5.2-9.8-7.7l-0.5,0.1
	l-17,4.1c-2.2,0.5-4.3-0.8-4.8-3c-0.2-0.7-0.1-1.4,0.1-2l5.3-18l0.1-0.3c-5.3-9.2-6.2-17.9-4.4-26.3c0-0.2,0.1-0.4,0.1-0.6
	c2.6-10.6,9.3-21,17.2-32l4.1-5.7c20.6-28,39.4-47.8,86.2-13.8c27.3,19.8,33.3,37.9,28.9,55.8c-0.1,0.3-0.2,0.6-0.2,1
	c-2.6,9.6-8.2,19.2-15,29C1929.4,546.6,1928.8,547.5,1928.1,548.5z"/>
<path class="st0" d="M158.1,689.1c-0.7,0.9-1.4,1.9-2.1,2.8c-21,27.6-43.4,44.8-86.1,13.9c-3.6-2.6-6.9-5.2-9.8-7.7l-0.5,0.1
	l-17,4.1c-2.2,0.5-4.3-0.8-4.8-3c-0.2-0.7-0.1-1.4,0.1-2l5.3-18l0.1-0.3c-5.3-9.2-6.2-17.9-4.4-26.3c0-0.2,0.1-0.4,0.1-0.6
	c2.6-10.6,9.3-21,17.2-32l4.1-5.7c20.6-28,39.4-47.8,86.2-13.8c27.3,19.8,33.3,37.9,28.9,55.8c-0.1,0.3-0.2,0.6-0.2,1
	c-2.6,9.6-8.2,19.2-15,29C159.4,687.2,158.8,688.2,158.1,689.1z"/>
<path class="st0" d="M317.1,689.1c-0.7,0.9-1.4,1.9-2.1,2.8c-21,27.6-43.4,44.8-86.1,13.9c-3.6-2.6-6.9-5.2-9.8-7.7l-0.5,0.1
	l-17,4.1c-2.2,0.5-4.3-0.8-4.8-3c-0.2-0.7-0.1-1.4,0.1-2l5.3-18l0.1-0.3c-5.3-9.2-6.2-17.9-4.4-26.3c0-0.2,0.1-0.4,0.1-0.6
	c2.6-10.6,9.3-21,17.2-32l4.1-5.7c20.6-28,39.4-47.8,86.2-13.8c27.3,19.8,33.3,37.9,28.9,55.8c-0.1,0.3-0.2,0.6-0.2,1
	c-2.6,9.6-8.2,19.2-15,29C318.4,687.2,317.8,688.2,317.1,689.1z"/>
<path class="st0" d="M472.1,689.1c-0.7,0.9-1.4,1.9-2.1,2.8c-21,27.6-43.4,44.8-86.1,13.9c-3.6-2.6-6.9-5.2-9.8-7.7l-0.5,0.1
	l-17,4.1c-2.2,0.5-4.3-0.8-4.8-3c-0.2-0.7-0.1-1.4,0.1-2l5.3-18l0.1-0.3c-5.3-9.2-6.2-17.9-4.4-26.3c0-0.2,0.1-0.4,0.1-0.6
	c2.6-10.6,9.3-21,17.2-32l4.1-5.7c20.6-28,39.4-47.8,86.2-13.8c27.3,19.8,33.3,37.9,28.9,55.8c-0.1,0.3-0.2,0.6-0.2,1
	c-2.6,9.6-8.2,19.2-15,29C473.4,687.2,472.8,688.2,472.1,689.1z"/>
<path class="st0" d="M627.1,689.1c-0.7,0.9-1.4,1.9-2.1,2.8c-21,27.6-43.4,44.8-86.1,13.9c-3.6-2.6-6.9-5.2-9.8-7.7l-0.5,0.1
	l-17,4.1c-2.2,0.5-4.3-0.8-4.8-3c-0.2-0.7-0.1-1.4,0.1-2l5.3-18l0.1-0.3c-5.3-9.2-6.2-17.9-4.4-26.3c0-0.2,0.1-0.4,0.1-0.6
	c2.6-10.6,9.3-21,17.2-32l4.1-5.7c20.6-28,39.4-47.8,86.2-13.8c27.3,19.8,33.3,37.9,28.9,55.8c-0.1,0.3-0.2,0.6-0.2,1
	c-2.6,9.6-8.2,19.2-15,29C628.4,687.2,627.8,688.2,627.1,689.1z"/>
<path class="st0" d="M782.1,689.1c-0.7,0.9-1.4,1.9-2.1,2.8c-21,27.6-43.4,44.8-86.1,13.9c-3.6-2.6-6.9-5.2-9.8-7.7l-0.5,0.1
	l-17,4.1c-2.2,0.5-4.3-0.8-4.8-3c-0.2-0.7-0.1-1.4,0.1-2l5.3-18l0.1-0.3c-5.3-9.2-6.2-17.9-4.4-26.3c0-0.2,0.1-0.4,0.1-0.6
	c2.6-10.6,9.3-21,17.2-32l4.1-5.7c20.6-28,39.4-47.8,86.2-13.8c27.3,19.8,33.3,37.9,28.9,55.8c-0.1,0.3-0.2,0.6-0.2,1
	c-2.6,9.6-8.2,19.2-15,29C783.4,687.2,782.8,688.2,782.1,689.1z"/>
<path class="st0" d="M937.1,689.1c-0.7,0.9-1.4,1.9-2.1,2.8c-21,27.6-43.4,44.8-86.1,13.9c-3.6-2.6-6.9-5.2-9.8-7.7l-0.5,0.1
	l-17,4.1c-2.2,0.5-4.3-0.8-4.8-3c-0.2-0.7-0.1-1.4,0.1-2l5.3-18l0.1-0.3c-5.3-9.2-6.2-17.9-4.4-26.3c0-0.2,0.1-0.4,0.1-0.6
	c2.6-10.6,9.3-21,17.2-32l4.1-5.7c20.6-28,39.4-47.8,86.2-13.8c27.3,19.8,33.3,37.9,28.9,55.8c-0.1,0.3-0.2,0.6-0.2,1
	c-2.6,9.6-8.2,19.2-15,29C938.4,687.2,937.8,688.2,937.1,689.1z"/>
<path class="st0" d="M1092.1,689.1c-0.7,0.9-1.4,1.9-2.1,2.8c-21,27.6-43.4,44.8-86.1,13.9c-3.6-2.6-6.9-5.2-9.8-7.7l-0.5,0.1
	l-17,4.1c-2.2,0.5-4.3-0.8-4.8-3c-0.2-0.7-0.1-1.4,0.1-2l5.3-18l0.1-0.3c-5.3-9.2-6.2-17.9-4.4-26.3c0-0.2,0.1-0.4,0.1-0.6
	c2.6-10.6,9.3-21,17.2-32l4.1-5.7c20.6-28,39.4-47.8,86.2-13.8c27.3,19.8,33.3,37.9,28.9,55.8c-0.1,0.3-0.2,0.6-0.2,1
	c-2.6,9.6-8.2,19.2-15,29C1093.4,687.2,1092.8,688.2,1092.1,689.1z"/>
<path class="st0" d="M1247.1,689.1c-0.7,0.9-1.4,1.9-2.1,2.8c-21,27.6-43.4,44.8-86.1,13.9c-3.6-2.6-6.9-5.2-9.8-7.7l-0.5,0.1
	l-17,4.1c-2.2,0.5-4.3-0.8-4.8-3c-0.2-0.7-0.1-1.4,0.1-2l5.3-18l0.1-0.3c-5.3-9.2-6.2-17.9-4.4-26.3c0-0.2,0.1-0.4,0.1-0.6
	c2.6-10.6,9.3-21,17.2-32l4.1-5.7c20.6-28,39.4-47.8,86.2-13.8c27.3,19.8,33.3,37.9,28.9,55.8c-0.1,0.3-0.2,0.6-0.2,1
	c-2.6,9.6-8.2,19.2-15,29C1248.4,687.2,1247.8,688.2,1247.1,689.1z"/>
<path class="st0" d="M1402.1,689.1c-0.7,0.9-1.4,1.9-2.1,2.8c-21,27.6-43.4,44.8-86.1,13.9c-3.6-2.6-6.9-5.2-9.8-7.7l-0.5,0.1
	l-17,4.1c-2.2,0.5-4.3-0.8-4.8-3c-0.2-0.7-0.1-1.4,0.1-2l5.3-18l0.1-0.3c-5.3-9.2-6.2-17.9-4.4-26.3c0-0.2,0.1-0.4,0.1-0.6
	c2.6-10.6,9.3-21,17.2-32l4.1-5.7c20.6-28,39.4-47.8,86.2-13.8c27.3,19.8,33.3,37.9,28.9,55.8c-0.1,0.3-0.2,0.6-0.2,1
	c-2.6,9.6-8.2,19.2-15,29C1403.4,687.2,1402.8,688.2,1402.1,689.1z"/>
<path class="st0" d="M1557.1,689.1c-0.7,0.9-1.4,1.9-2.1,2.8c-21,27.6-43.4,44.8-86.1,13.9c-3.6-2.6-6.9-5.2-9.8-7.7l-0.5,0.1
	l-17,4.1c-2.2,0.5-4.3-0.8-4.8-3c-0.2-0.7-0.1-1.4,0.1-2l5.3-18l0.1-0.3c-5.3-9.2-6.2-17.9-4.4-26.3c0-0.2,0.1-0.4,0.1-0.6
	c2.6-10.6,9.3-21,17.2-32l4.1-5.7c20.6-28,39.4-47.8,86.2-13.8c27.3,19.8,33.3,37.9,28.9,55.8c-0.1,0.3-0.2,0.6-0.2,1
	c-2.6,9.6-8.2,19.2-15,29C1558.4,687.2,1557.8,688.2,1557.1,689.1z"/>
<path class="st0" d="M1712.1,689.1c-0.7,0.9-1.4,1.9-2.1,2.8c-21,27.6-43.4,44.8-86.1,13.9c-3.6-2.6-6.9-5.2-9.8-7.7l-0.5,0.1
	l-17,4.1c-2.2,0.5-4.3-0.8-4.8-3c-0.2-0.7-0.1-1.4,0.1-2l5.3-18l0.1-0.3c-5.3-9.2-6.2-17.9-4.4-26.3c0-0.2,0.1-0.4,0.1-0.6
	c2.6-10.6,9.3-21,17.2-32l4.1-5.7c20.6-28,39.4-47.8,86.2-13.8c27.3,19.8,33.3,37.9,28.9,55.8c-0.1,0.3-0.2,0.6-0.2,1
	c-2.6,9.6-8.2,19.2-15,29C1713.4,687.2,1712.8,688.2,1712.1,689.1z"/>
<path class="st0" d="M1867.1,689.1c-0.7,0.9-1.4,1.9-2.1,2.8c-21,27.6-43.4,44.8-86.1,13.9c-3.6-2.6-6.9-5.2-9.8-7.7l-0.5,0.1
	l-17,4.1c-2.2,0.5-4.3-0.8-4.8-3c-0.2-0.7-0.1-1.4,0.1-2l5.3-18l0.1-0.3c-5.3-9.2-6.2-17.9-4.4-26.3c0-0.2,0.1-0.4,0.1-0.6
	c2.6-10.6,9.3-21,17.2-32l4.1-5.7c20.6-28,39.4-47.8,86.2-13.8c27.3,19.8,33.3,37.9,28.9,55.8c-0.1,0.3-0.2,0.6-0.2,1
	c-2.6,9.6-8.2,19.2-15,29C1868.4,687.2,1867.8,688.2,1867.1,689.1z"/>
<path class="st0" d="M219.1,832.3c-0.7,0.9-1.4,1.9-2.1,2.8c-21,27.6-43.4,44.8-86.1,13.9c-3.6-2.6-6.9-5.2-9.8-7.7l-0.5,0.1
	l-17,4.1c-2.2,0.5-4.3-0.8-4.8-3c-0.2-0.7-0.1-1.4,0.1-2l5.3-18l0.1-0.3c-5.3-9.2-6.2-17.9-4.4-26.3c0-0.2,0.1-0.4,0.1-0.6
	c2.6-10.6,9.3-21,17.2-32l4.1-5.7c20.6-28,39.4-47.8,86.2-13.8c27.3,19.8,33.3,37.9,28.9,55.8c-0.1,0.3-0.2,0.6-0.2,1
	c-2.6,9.6-8.2,19.2-15,29C220.4,830.5,219.8,831.4,219.1,832.3z"/>
<path class="st0" d="M378.1,832.3c-0.7,0.9-1.4,1.9-2.1,2.8c-21,27.6-43.4,44.8-86.1,13.9c-3.6-2.6-6.9-5.2-9.8-7.7l-0.5,0.1
	l-17,4.1c-2.2,0.5-4.3-0.8-4.8-3c-0.2-0.7-0.1-1.4,0.1-2l5.3-18l0.1-0.3c-5.3-9.2-6.2-17.9-4.4-26.3c0-0.2,0.1-0.4,0.1-0.6
	c2.6-10.6,9.3-21,17.2-32l4.1-5.7c20.6-28,39.4-47.8,86.2-13.8c27.3,19.8,33.3,37.9,28.9,55.8c-0.1,0.3-0.2,0.6-0.2,1
	c-2.6,9.6-8.2,19.2-15,29C379.4,830.5,378.8,831.4,378.1,832.3z"/>
<path class="st0" d="M533.1,832.3c-0.7,0.9-1.4,1.9-2.1,2.8c-21,27.6-43.4,44.8-86.1,13.9c-3.6-2.6-6.9-5.2-9.8-7.7l-0.5,0.1
	l-17,4.1c-2.2,0.5-4.3-0.8-4.8-3c-0.2-0.7-0.1-1.4,0.1-2l5.3-18l0.1-0.3c-5.3-9.2-6.2-17.9-4.4-26.3c0-0.2,0.1-0.4,0.1-0.6
	c2.6-10.6,9.3-21,17.2-32l4.1-5.7c20.6-28,39.4-47.8,86.2-13.8c27.3,19.8,33.3,37.9,28.9,55.8c-0.1,0.3-0.2,0.6-0.2,1
	c-2.6,9.6-8.2,19.2-15,29C534.4,830.5,533.8,831.4,533.1,832.3z"/>
<path class="st0" d="M688.1,832.3c-0.7,0.9-1.4,1.9-2.1,2.8c-21,27.6-43.4,44.8-86.1,13.9c-3.6-2.6-6.9-5.2-9.8-7.7l-0.5,0.1
	l-17,4.1c-2.2,0.5-4.3-0.8-4.8-3c-0.2-0.7-0.1-1.4,0.1-2l5.3-18l0.1-0.3c-5.3-9.2-6.2-17.9-4.4-26.3c0-0.2,0.1-0.4,0.1-0.6
	c2.6-10.6,9.3-21,17.2-32l4.1-5.7c20.6-28,39.4-47.8,86.2-13.8c27.3,19.8,33.3,37.9,28.9,55.8c-0.1,0.3-0.2,0.6-0.2,1
	c-2.6,9.6-8.2,19.2-15,29C689.4,830.5,688.8,831.4,688.1,832.3z"/>
<path class="st0" d="M843.1,832.3c-0.7,0.9-1.4,1.9-2.1,2.8c-21,27.6-43.4,44.8-86.1,13.9c-3.6-2.6-6.9-5.2-9.8-7.7l-0.5,0.1
	l-17,4.1c-2.2,0.5-4.3-0.8-4.8-3c-0.2-0.7-0.1-1.4,0.1-2l5.3-18l0.1-0.3c-5.3-9.2-6.2-17.9-4.4-26.3c0-0.2,0.1-0.4,0.1-0.6
	c2.6-10.6,9.3-21,17.2-32l4.1-5.7c20.6-28,39.4-47.8,86.2-13.8c27.3,19.8,33.3,37.9,28.9,55.8c-0.1,0.3-0.2,0.6-0.2,1
	c-2.6,9.6-8.2,19.2-15,29C844.4,830.5,843.8,831.4,843.1,832.3z"/>
<path class="st0" d="M998.1,832.3c-0.7,0.9-1.4,1.9-2.1,2.8c-21,27.6-43.4,44.8-86.1,13.9c-3.6-2.6-6.9-5.2-9.8-7.7l-0.5,0.1
	l-17,4.1c-2.2,0.5-4.3-0.8-4.8-3c-0.2-0.7-0.1-1.4,0.1-2l5.3-18l0.1-0.3c-5.3-9.2-6.2-17.9-4.4-26.3c0-0.2,0.1-0.4,0.1-0.6
	c2.6-10.6,9.3-21,17.2-32l4.1-5.7c20.6-28,39.4-47.8,86.2-13.8c27.3,19.8,33.3,37.9,28.9,55.8c-0.1,0.3-0.2,0.6-0.2,1
	c-2.6,9.6-8.2,19.2-15,29C999.4,830.5,998.8,831.4,998.1,832.3z"/>
<path class="st0" d="M1153.1,832.3c-0.7,0.9-1.4,1.9-2.1,2.8c-21,27.6-43.4,44.8-86.1,13.9c-3.6-2.6-6.9-5.2-9.8-7.7l-0.5,0.1
	l-17,4.1c-2.2,0.5-4.3-0.8-4.8-3c-0.2-0.7-0.1-1.4,0.1-2l5.3-18l0.1-0.3c-5.3-9.2-6.2-17.9-4.4-26.3c0-0.2,0.1-0.4,0.1-0.6
	c2.6-10.6,9.3-21,17.2-32l4.1-5.7c20.6-28,39.4-47.8,86.2-13.8c27.3,19.8,33.3,37.9,28.9,55.8c-0.1,0.3-0.2,0.6-0.2,1
	c-2.6,9.6-8.2,19.2-15,29C1154.4,830.5,1153.8,831.4,1153.1,832.3z"/>
<path class="st0" d="M1308.1,832.3c-0.7,0.9-1.4,1.9-2.1,2.8c-21,27.6-43.4,44.8-86.1,13.9c-3.6-2.6-6.9-5.2-9.8-7.7l-0.5,0.1
	l-17,4.1c-2.2,0.5-4.3-0.8-4.8-3c-0.2-0.7-0.1-1.4,0.1-2l5.3-18l0.1-0.3c-5.3-9.2-6.2-17.9-4.4-26.3c0-0.2,0.1-0.4,0.1-0.6
	c2.6-10.6,9.3-21,17.2-32l4.1-5.7c20.6-28,39.4-47.8,86.2-13.8c27.3,19.8,33.3,37.9,28.9,55.8c-0.1,0.3-0.2,0.6-0.2,1
	c-2.6,9.6-8.2,19.2-15,29C1309.4,830.5,1308.8,831.4,1308.1,832.3z"/>
<path class="st0" d="M1463.1,832.3c-0.7,0.9-1.4,1.9-2.1,2.8c-21,27.6-43.4,44.8-86.1,13.9c-3.6-2.6-6.9-5.2-9.8-7.7l-0.5,0.1
	l-17,4.1c-2.2,0.5-4.3-0.8-4.8-3c-0.2-0.7-0.1-1.4,0.1-2l5.3-18l0.1-0.3c-5.3-9.2-6.2-17.9-4.4-26.3c0-0.2,0.1-0.4,0.1-0.6
	c2.6-10.6,9.3-21,17.2-32l4.1-5.7c20.6-28,39.4-47.8,86.2-13.8c27.3,19.8,33.3,37.9,28.9,55.8c-0.1,0.3-0.2,0.6-0.2,1
	c-2.6,9.6-8.2,19.2-15,29C1464.4,830.5,1463.8,831.4,1463.1,832.3z"/>
<path class="st0" d="M1618.1,832.3c-0.7,0.9-1.4,1.9-2.1,2.8c-21,27.6-43.4,44.8-86.1,13.9c-3.6-2.6-6.9-5.2-9.8-7.7l-0.5,0.1
	l-17,4.1c-2.2,0.5-4.3-0.8-4.8-3c-0.2-0.7-0.1-1.4,0.1-2l5.3-18l0.1-0.3c-5.3-9.2-6.2-17.9-4.4-26.3c0-0.2,0.1-0.4,0.1-0.6
	c2.6-10.6,9.3-21,17.2-32l4.1-5.7c20.6-28,39.4-47.8,86.2-13.8c27.3,19.8,33.3,37.9,28.9,55.8c-0.1,0.3-0.2,0.6-0.2,1
	c-2.6,9.6-8.2,19.2-15,29C1619.4,830.5,1618.8,831.4,1618.1,832.3z"/>
<path class="st0" d="M1773.1,832.3c-0.7,0.9-1.4,1.9-2.1,2.8c-21,27.6-43.4,44.8-86.1,13.9c-3.6-2.6-6.9-5.2-9.8-7.7l-0.5,0.1
	l-17,4.1c-2.2,0.5-4.3-0.8-4.8-3c-0.2-0.7-0.1-1.4,0.1-2l5.3-18l0.1-0.3c-5.3-9.2-6.2-17.9-4.4-26.3c0-0.2,0.1-0.4,0.1-0.6
	c2.6-10.6,9.3-21,17.2-32l4.1-5.7c20.6-28,39.4-47.8,86.2-13.8c27.3,19.8,33.3,37.9,28.9,55.8c-0.1,0.3-0.2,0.6-0.2,1
	c-2.6,9.6-8.2,19.2-15,29C1774.4,830.5,1773.8,831.4,1773.1,832.3z"/>
<path class="st0" d="M1928.1,832.3c-0.7,0.9-1.4,1.9-2.1,2.8c-21,27.6-43.4,44.8-86.1,13.9c-3.6-2.6-6.9-5.2-9.8-7.7l-0.5,0.1
	l-17,4.1c-2.2,0.5-4.3-0.8-4.8-3c-0.2-0.7-0.1-1.4,0.1-2l5.3-18l0.1-0.3c-5.3-9.2-6.2-17.9-4.4-26.3c0-0.2,0.1-0.4,0.1-0.6
	c2.6-10.6,9.3-21,17.2-32l4.1-5.7c20.6-28,39.4-47.8,86.2-13.8c27.3,19.8,33.3,37.9,28.9,55.8c-0.1,0.3-0.2,0.6-0.2,1
	c-2.6,9.6-8.2,19.2-15,29C1929.4,830.5,1928.8,831.4,1928.1,832.3z"/>
<path class="st0" d="M2029,121.4c-0.7,0.9-1.4,1.9-2.1,2.8c-21,27.6-43.4,44.8-86.1,13.9c-3.6-2.6-6.9-5.2-9.8-7.7l-0.5,0.1l-17,4.1
	c-2.2,0.5-4.3-0.8-4.8-3c-0.2-0.7-0.1-1.4,0.1-2l5.3-18l0.1-0.3c-5.3-9.2-6.2-17.9-4.4-26.3c0-0.2,0.1-0.4,0.1-0.6
	c2.6-10.6,9.3-21,17.2-32l4.1-5.7c20.6-28,39.4-47.8,86.2-13.8c27.3,19.8,33.3,37.9,28.9,55.8c-0.1,0.3-0.2,0.6-0.2,1
	c-2.6,9.6-8.2,19.2-15,29C2030.4,119.6,2029.7,120.5,2029,121.4z"/>
<path class="st0" d="M2184,121.4c-0.7,0.9-1.4,1.9-2.1,2.8c-21,27.6-43.4,44.8-86.1,13.9c-3.6-2.6-6.9-5.2-9.8-7.7l-0.5,0.1l-17,4.1
	c-2.2,0.5-4.3-0.8-4.8-3c-0.2-0.7-0.1-1.4,0.1-2l5.3-18l0.1-0.3c-5.3-9.2-6.2-17.9-4.4-26.3c0-0.2,0.1-0.4,0.1-0.6
	c2.6-10.6,9.3-21,17.2-32l4.1-5.7c20.6-28,39.4-47.8,86.2-13.8c27.3,19.8,33.3,37.9,28.9,55.8c-0.1,0.3-0.2,0.6-0.2,1
	c-2.6,9.6-8.2,19.2-15,29C2185.4,119.6,2184.7,120.5,2184,121.4z"/>
<path class="st0" d="M2090,264.7c-0.7,0.9-1.4,1.9-2.1,2.8c-21,27.6-43.4,44.8-86.1,13.9c-3.6-2.6-6.9-5.2-9.8-7.7l-0.5,0.1l-17,4.1
	c-2.2,0.5-4.3-0.8-4.8-3c-0.2-0.7-0.1-1.4,0.1-2l5.3-18l0.1-0.3c-5.3-9.2-6.2-17.9-4.4-26.3c0-0.2,0.1-0.4,0.1-0.6
	c2.6-10.6,9.3-21,17.2-32l4.1-5.7c20.6-28,39.4-47.8,86.2-13.8c27.3,19.8,33.3,37.9,28.9,55.8c-0.1,0.3-0.2,0.6-0.2,1
	c-2.6,9.6-8.2,19.2-15,29C2091.4,262.8,2090.7,263.7,2090,264.7z"/>
<path class="st0" d="M2245,264.7c-0.7,0.9-1.4,1.9-2.1,2.8c-21,27.6-43.4,44.8-86.1,13.9c-3.6-2.6-6.9-5.2-9.8-7.7l-0.5,0.1l-17,4.1
	c-2.2,0.5-4.3-0.8-4.8-3c-0.2-0.7-0.1-1.4,0.1-2l5.3-18l0.1-0.3c-5.3-9.2-6.2-17.9-4.4-26.3c0-0.2,0.1-0.4,0.1-0.6
	c2.6-10.6,9.3-21,17.2-32l4.1-5.7c20.6-28,39.4-47.8,86.2-13.8c27.3,19.8,33.3,37.9,28.9,55.8c-0.1,0.3-0.2,0.6-0.2,1
	c-2.6,9.6-8.2,19.2-15,29C2246.4,262.8,2245.7,263.7,2245,264.7z"/>
<path class="st0" d="M2029,405.3c-0.7,0.9-1.4,1.9-2.1,2.8c-21,27.6-43.4,44.8-86.1,13.9c-3.6-2.6-6.9-5.2-9.8-7.7l-0.5,0.1l-17,4.1
	c-2.2,0.5-4.3-0.8-4.8-3c-0.2-0.7-0.1-1.4,0.1-2l5.3-18l0.1-0.3c-5.3-9.2-6.2-17.9-4.4-26.3c0-0.2,0.1-0.4,0.1-0.6
	c2.6-10.6,9.3-21,17.2-32l4.1-5.7c20.6-28,39.4-47.8,86.2-13.8c27.3,19.8,33.3,37.9,28.9,55.8c-0.1,0.3-0.2,0.6-0.2,1
	c-2.6,9.6-8.2,19.2-15,29C2030.4,403.4,2029.7,404.3,2029,405.3z"/>
<path class="st0" d="M2184,405.3c-0.7,0.9-1.4,1.9-2.1,2.8c-21,27.6-43.4,44.8-86.1,13.9c-3.6-2.6-6.9-5.2-9.8-7.7l-0.5,0.1l-17,4.1
	c-2.2,0.5-4.3-0.8-4.8-3c-0.2-0.7-0.1-1.4,0.1-2l5.3-18l0.1-0.3c-5.3-9.2-6.2-17.9-4.4-26.3c0-0.2,0.1-0.4,0.1-0.6
	c2.6-10.6,9.3-21,17.2-32l4.1-5.7c20.6-28,39.4-47.8,86.2-13.8c27.3,19.8,33.3,37.9,28.9,55.8c-0.1,0.3-0.2,0.6-0.2,1
	c-2.6,9.6-8.2,19.2-15,29C2185.4,403.4,2184.7,404.3,2184,405.3z"/>
<path class="st0" d="M2090,548.5c-0.7,0.9-1.4,1.9-2.1,2.8c-21,27.6-43.4,44.8-86.1,13.9c-3.6-2.6-6.9-5.2-9.8-7.7l-0.5,0.1l-17,4.1
	c-2.2,0.5-4.3-0.8-4.8-3c-0.2-0.7-0.1-1.4,0.1-2l5.3-18l0.1-0.3c-5.3-9.2-6.2-17.9-4.4-26.3c0-0.2,0.1-0.4,0.1-0.6
	c2.6-10.6,9.3-21,17.2-32l4.1-5.7c20.6-28,39.4-47.8,86.2-13.8c27.3,19.8,33.3,37.9,28.9,55.8c-0.1,0.3-0.2,0.6-0.2,1
	c-2.6,9.6-8.2,19.2-15,29C2091.4,546.6,2090.7,547.5,2090,548.5z"/>
<path class="st0" d="M2245,548.5c-0.7,0.9-1.4,1.9-2.1,2.8c-21,27.6-43.4,44.8-86.1,13.9c-3.6-2.6-6.9-5.2-9.8-7.7l-0.5,0.1l-17,4.1
	c-2.2,0.5-4.3-0.8-4.8-3c-0.2-0.7-0.1-1.4,0.1-2l5.3-18l0.1-0.3c-5.3-9.2-6.2-17.9-4.4-26.3c0-0.2,0.1-0.4,0.1-0.6
	c2.6-10.6,9.3-21,17.2-32l4.1-5.7c20.6-28,39.4-47.8,86.2-13.8c27.3,19.8,33.3,37.9,28.9,55.8c-0.1,0.3-0.2,0.6-0.2,1
	c-2.6,9.6-8.2,19.2-15,29C2246.4,546.6,2245.7,547.5,2245,548.5z"/>
<path class="st0" d="M2029,689.1c-0.7,0.9-1.4,1.9-2.1,2.8c-21,27.6-43.4,44.8-86.1,13.9c-3.6-2.6-6.9-5.2-9.8-7.7l-0.5,0.1l-17,4.1
	c-2.2,0.5-4.3-0.8-4.8-3c-0.2-0.7-0.1-1.4,0.1-2l5.3-18l0.1-0.3c-5.3-9.2-6.2-17.9-4.4-26.3c0-0.2,0.1-0.4,0.1-0.6
	c2.6-10.6,9.3-21,17.2-32l4.1-5.7c20.6-28,39.4-47.8,86.2-13.8c27.3,19.8,33.3,37.9,28.9,55.8c-0.1,0.3-0.2,0.6-0.2,1
	c-2.6,9.6-8.2,19.2-15,29C2030.4,687.2,2029.7,688.2,2029,689.1z"/>
<path class="st0" d="M2184,689.1c-0.7,0.9-1.4,1.9-2.1,2.8c-21,27.6-43.4,44.8-86.1,13.9c-3.6-2.6-6.9-5.2-9.8-7.7l-0.5,0.1l-17,4.1
	c-2.2,0.5-4.3-0.8-4.8-3c-0.2-0.7-0.1-1.4,0.1-2l5.3-18l0.1-0.3c-5.3-9.2-6.2-17.9-4.4-26.3c0-0.2,0.1-0.4,0.1-0.6
	c2.6-10.6,9.3-21,17.2-32l4.1-5.7c20.6-28,39.4-47.8,86.2-13.8c27.3,19.8,33.3,37.9,28.9,55.8c-0.1,0.3-0.2,0.6-0.2,1
	c-2.6,9.6-8.2,19.2-15,29C2185.4,687.2,2184.7,688.2,2184,689.1z"/>
<path class="st0" d="M2090,832.3c-0.7,0.9-1.4,1.9-2.1,2.8c-21,27.6-43.4,44.8-86.1,13.9c-3.6-2.6-6.9-5.2-9.8-7.7l-0.5,0.1l-17,4.1
	c-2.2,0.5-4.3-0.8-4.8-3c-0.2-0.7-0.1-1.4,0.1-2l5.3-18l0.1-0.3c-5.3-9.2-6.2-17.9-4.4-26.3c0-0.2,0.1-0.4,0.1-0.6
	c2.6-10.6,9.3-21,17.2-32l4.1-5.7c20.6-28,39.4-47.8,86.2-13.8c27.3,19.8,33.3,37.9,28.9,55.8c-0.1,0.3-0.2,0.6-0.2,1
	c-2.6,9.6-8.2,19.2-15,29C2091.4,830.5,2090.7,831.4,2090,832.3z"/>
<path class="st0" d="M2245,832.3c-0.7,0.9-1.4,1.9-2.1,2.8c-21,27.6-43.4,44.8-86.1,13.9c-3.6-2.6-6.9-5.2-9.8-7.7l-0.5,0.1l-17,4.1
	c-2.2,0.5-4.3-0.8-4.8-3c-0.2-0.7-0.1-1.4,0.1-2l5.3-18l0.1-0.3c-5.3-9.2-6.2-17.9-4.4-26.3c0-0.2,0.1-0.4,0.1-0.6
	c2.6-10.6,9.3-21,17.2-32l4.1-5.7c20.6-28,39.4-47.8,86.2-13.8c27.3,19.8,33.3,37.9,28.9,55.8c-0.1,0.3-0.2,0.6-0.2,1
	c-2.6,9.6-8.2,19.2-15,29C2246.4,830.5,2245.7,831.4,2245,832.3z"/>
<path class="st0" d="M2341.3,121.4c-0.7,0.9-1.4,1.9-2.1,2.8c-21,27.6-43.4,44.8-86.1,13.9c-3.6-2.6-6.9-5.2-9.8-7.7l-0.5,0.1
	l-17,4.1c-2.2,0.5-4.3-0.8-4.8-3c-0.2-0.7-0.1-1.4,0.1-2l5.3-18l0.1-0.3c-5.3-9.2-6.2-17.9-4.4-26.3c0-0.2,0.1-0.4,0.1-0.6
	c2.6-10.6,9.3-21,17.2-32l4.1-5.7c20.6-28,39.4-47.8,86.2-13.8c27.3,19.8,33.3,37.9,28.9,55.8c-0.1,0.3-0.2,0.6-0.2,1
	c-2.6,9.6-8.2,19.2-15,29C2342.6,119.6,2341.9,120.5,2341.3,121.4z"/>
<path class="st0" d="M2496.3,121.4c-0.7,0.9-1.4,1.9-2.1,2.8c-21,27.6-43.4,44.8-86.1,13.9c-3.6-2.6-6.9-5.2-9.8-7.7l-0.5,0.1
	l-17,4.1c-2.2,0.5-4.3-0.8-4.8-3c-0.2-0.7-0.1-1.4,0.1-2l5.3-18l0.1-0.3c-5.3-9.2-6.2-17.9-4.4-26.3c0-0.2,0.1-0.4,0.1-0.6
	c2.6-10.6,9.3-21,17.2-32l4.1-5.7c20.6-28,39.4-47.8,86.2-13.8c27.3,19.8,33.3,37.9,28.9,55.8c-0.1,0.3-0.2,0.6-0.2,1
	c-2.6,9.6-8.2,19.2-15,29C2497.6,119.6,2496.9,120.5,2496.3,121.4z"/>
<path class="st0" d="M2402.3,264.7c-0.7,0.9-1.4,1.9-2.1,2.8c-21,27.6-43.4,44.8-86.1,13.9c-3.6-2.6-6.9-5.2-9.8-7.7l-0.5,0.1
	l-17,4.1c-2.2,0.5-4.3-0.8-4.8-3c-0.2-0.7-0.1-1.4,0.1-2l5.3-18l0.1-0.3c-5.3-9.2-6.2-17.9-4.4-26.3c0-0.2,0.1-0.4,0.1-0.6
	c2.6-10.6,9.3-21,17.2-32l4.1-5.7c20.6-28,39.4-47.8,86.2-13.8c27.3,19.8,33.3,37.9,28.9,55.8c-0.1,0.3-0.2,0.6-0.2,1
	c-2.6,9.6-8.2,19.2-15,29C2403.6,262.8,2402.9,263.7,2402.3,264.7z"/>
<path class="st0" d="M2557.3,264.7c-0.7,0.9-1.4,1.9-2.1,2.8c-21,27.6-43.4,44.8-86.1,13.9c-3.6-2.6-6.9-5.2-9.8-7.7l-0.5,0.1
	l-17,4.1c-2.2,0.5-4.3-0.8-4.8-3c-0.2-0.7-0.1-1.4,0.1-2l5.3-18l0.1-0.3c-5.3-9.2-6.2-17.9-4.4-26.3c0-0.2,0.1-0.4,0.1-0.6
	c2.6-10.6,9.3-21,17.2-32l4.1-5.7c20.6-28,39.4-47.8,86.2-13.8c27.3,19.8,33.3,37.9,28.9,55.8c-0.1,0.3-0.2,0.6-0.2,1
	c-2.6,9.6-8.2,19.2-15,29C2558.6,262.8,2557.9,263.7,2557.3,264.7z"/>
<path class="st0" d="M2341.3,405.3c-0.7,0.9-1.4,1.9-2.1,2.8c-21,27.6-43.4,44.8-86.1,13.9c-3.6-2.6-6.9-5.2-9.8-7.7l-0.5,0.1
	l-17,4.1c-2.2,0.5-4.3-0.8-4.8-3c-0.2-0.7-0.1-1.4,0.1-2l5.3-18l0.1-0.3c-5.3-9.2-6.2-17.9-4.4-26.3c0-0.2,0.1-0.4,0.1-0.6
	c2.6-10.6,9.3-21,17.2-32l4.1-5.7c20.6-28,39.4-47.8,86.2-13.8c27.3,19.8,33.3,37.9,28.9,55.8c-0.1,0.3-0.2,0.6-0.2,1
	c-2.6,9.6-8.2,19.2-15,29C2342.6,403.4,2341.9,404.3,2341.3,405.3z"/>
<path class="st0" d="M2496.3,405.3c-0.7,0.9-1.4,1.9-2.1,2.8c-21,27.6-43.4,44.8-86.1,13.9c-3.6-2.6-6.9-5.2-9.8-7.7l-0.5,0.1
	l-17,4.1c-2.2,0.5-4.3-0.8-4.8-3c-0.2-0.7-0.1-1.4,0.1-2l5.3-18l0.1-0.3c-5.3-9.2-6.2-17.9-4.4-26.3c0-0.2,0.1-0.4,0.1-0.6
	c2.6-10.6,9.3-21,17.2-32l4.1-5.7c20.6-28,39.4-47.8,86.2-13.8c27.3,19.8,33.3,37.9,28.9,55.8c-0.1,0.3-0.2,0.6-0.2,1
	c-2.6,9.6-8.2,19.2-15,29C2497.6,403.4,2496.9,404.3,2496.3,405.3z"/>
<path class="st0" d="M2402.3,548.5c-0.7,0.9-1.4,1.9-2.1,2.8c-21,27.6-43.4,44.8-86.1,13.9c-3.6-2.6-6.9-5.2-9.8-7.7l-0.5,0.1
	l-17,4.1c-2.2,0.5-4.3-0.8-4.8-3c-0.2-0.7-0.1-1.4,0.1-2l5.3-18l0.1-0.3c-5.3-9.2-6.2-17.9-4.4-26.3c0-0.2,0.1-0.4,0.1-0.6
	c2.6-10.6,9.3-21,17.2-32l4.1-5.7c20.6-28,39.4-47.8,86.2-13.8c27.3,19.8,33.3,37.9,28.9,55.8c-0.1,0.3-0.2,0.6-0.2,1
	c-2.6,9.6-8.2,19.2-15,29C2403.6,546.6,2402.9,547.5,2402.3,548.5z"/>
<path class="st0" d="M2557.3,548.5c-0.7,0.9-1.4,1.9-2.1,2.8c-21,27.6-43.4,44.8-86.1,13.9c-3.6-2.6-6.9-5.2-9.8-7.7l-0.5,0.1
	l-17,4.1c-2.2,0.5-4.3-0.8-4.8-3c-0.2-0.7-0.1-1.4,0.1-2l5.3-18l0.1-0.3c-5.3-9.2-6.2-17.9-4.4-26.3c0-0.2,0.1-0.4,0.1-0.6
	c2.6-10.6,9.3-21,17.2-32l4.1-5.7c20.6-28,39.4-47.8,86.2-13.8c27.3,19.8,33.3,37.9,28.9,55.8c-0.1,0.3-0.2,0.6-0.2,1
	c-2.6,9.6-8.2,19.2-15,29C2558.6,546.6,2557.9,547.5,2557.3,548.5z"/>
<path class="st0" d="M2341.3,689.1c-0.7,0.9-1.4,1.9-2.1,2.8c-21,27.6-43.4,44.8-86.1,13.9c-3.6-2.6-6.9-5.2-9.8-7.7l-0.5,0.1
	l-17,4.1c-2.2,0.5-4.3-0.8-4.8-3c-0.2-0.7-0.1-1.4,0.1-2l5.3-18l0.1-0.3c-5.3-9.2-6.2-17.9-4.4-26.3c0-0.2,0.1-0.4,0.1-0.6
	c2.6-10.6,9.3-21,17.2-32l4.1-5.7c20.6-28,39.4-47.8,86.2-13.8c27.3,19.8,33.3,37.9,28.9,55.8c-0.1,0.3-0.2,0.6-0.2,1
	c-2.6,9.6-8.2,19.2-15,29C2342.6,687.2,2341.9,688.2,2341.3,689.1z"/>
<path class="st0" d="M2496.3,689.1c-0.7,0.9-1.4,1.9-2.1,2.8c-21,27.6-43.4,44.8-86.1,13.9c-3.6-2.6-6.9-5.2-9.8-7.7l-0.5,0.1
	l-17,4.1c-2.2,0.5-4.3-0.8-4.8-3c-0.2-0.7-0.1-1.4,0.1-2l5.3-18l0.1-0.3c-5.3-9.2-6.2-17.9-4.4-26.3c0-0.2,0.1-0.4,0.1-0.6
	c2.6-10.6,9.3-21,17.2-32l4.1-5.7c20.6-28,39.4-47.8,86.2-13.8c27.3,19.8,33.3,37.9,28.9,55.8c-0.1,0.3-0.2,0.6-0.2,1
	c-2.6,9.6-8.2,19.2-15,29C2497.6,687.2,2496.9,688.2,2496.3,689.1z"/>
<path class="st0" d="M2402.3,832.3c-0.7,0.9-1.4,1.9-2.1,2.8c-21,27.6-43.4,44.8-86.1,13.9c-3.6-2.6-6.9-5.2-9.8-7.7l-0.5,0.1
	l-17,4.1c-2.2,0.5-4.3-0.8-4.8-3c-0.2-0.7-0.1-1.4,0.1-2l5.3-18l0.1-0.3c-5.3-9.2-6.2-17.9-4.4-26.3c0-0.2,0.1-0.4,0.1-0.6
	c2.6-10.6,9.3-21,17.2-32l4.1-5.7c20.6-28,39.4-47.8,86.2-13.8c27.3,19.8,33.3,37.9,28.9,55.8c-0.1,0.3-0.2,0.6-0.2,1
	c-2.6,9.6-8.2,19.2-15,29C2403.6,830.5,2402.9,831.4,2402.3,832.3z"/>
<path class="st0" d="M2557.3,832.3c-0.7,0.9-1.4,1.9-2.1,2.8c-21,27.6-43.4,44.8-86.1,13.9c-3.6-2.6-6.9-5.2-9.8-7.7l-0.5,0.1
	l-17,4.1c-2.2,0.5-4.3-0.8-4.8-3c-0.2-0.7-0.1-1.4,0.1-2l5.3-18l0.1-0.3c-5.3-9.2-6.2-17.9-4.4-26.3c0-0.2,0.1-0.4,0.1-0.6
	c2.6-10.6,9.3-21,17.2-32l4.1-5.7c20.6-28,39.4-47.8,86.2-13.8c27.3,19.8,33.3,37.9,28.9,55.8c-0.1,0.3-0.2,0.6-0.2,1
	c-2.6,9.6-8.2,19.2-15,29C2558.6,830.5,2557.9,831.4,2557.3,832.3z"/>
</svg>
