<svg width="30" height="30" viewBox="0 0 30 30" fill="none" xmlns="http://www.w3.org/2000/svg">
<path fill-rule="evenodd" clip-rule="evenodd" d="M29.432 14.7862C29.432 6.61851 22.844 0 14.716 0C6.58733 0 0 6.61851 0 14.7862C0 22.9532 6.58733 29.5723 14.716 29.5723C14.8027 29.5723 14.8887 29.5723 14.974 29.566V18.0606H11.8127V14.3585H14.974V11.633C14.974 8.47277 16.8947 6.75191 19.6993 6.75191C21.0453 6.75191 22.2 6.84957 22.534 6.89617V10.1994H20.6027C19.0793 10.1994 18.7793 10.9277 18.7793 11.9962V14.3528H22.43L21.9533 18.0549H18.7793V29.0004C24.9307 27.2272 29.432 21.5381 29.432 14.7862Z" fill="#9682AF"/>
</svg>
