<svg width="30" height="30" viewBox="0 0 30 30" fill="none" xmlns="http://www.w3.org/2000/svg">
<path fill-rule="evenodd" clip-rule="evenodd" d="M21.8483 11.6949C21.8553 11.8423 21.8585 11.9911 21.8585 12.1398C21.8585 16.6896 18.3951 21.9357 12.0619 21.9364H12.0626H12.0619C10.1177 21.9364 8.30872 21.3657 6.78447 20.3891C7.05383 20.4211 7.3283 20.437 7.6066 20.437C9.21957 20.437 10.7036 19.8868 11.8826 18.9632C10.3749 18.9357 9.10404 17.94 8.66617 16.5721C8.87553 16.6123 9.09192 16.634 9.31277 16.634C9.62745 16.634 9.93128 16.5919 10.2204 16.5128C8.64511 16.1974 7.45851 14.8053 7.45851 13.1381C7.45851 13.1221 7.45851 13.1087 7.45915 13.094C7.92319 13.3526 8.45362 13.507 9.01851 13.5243C8.09362 12.9077 7.4866 11.8532 7.4866 10.6589C7.4866 10.0283 7.65702 9.43723 7.95255 8.92851C9.65043 11.0119 12.1877 12.3817 15.0498 12.526C14.9904 12.2732 14.9598 12.0102 14.9598 11.7402C14.9598 9.84 16.5019 8.29787 18.4034 8.29787C19.3934 8.29787 20.2883 8.7166 20.9164 9.38617C21.7009 9.23106 22.4374 8.94447 23.1026 8.55C22.8453 9.35362 22.2996 10.0283 21.5885 10.4547C22.2849 10.3711 22.9487 10.1866 23.5653 9.91213C23.1051 10.6028 22.5204 11.2091 21.8483 11.6949ZM15 0C6.71617 0 0 6.71681 0 15C0 23.2826 6.71617 30 15 30C23.2826 30 30 23.2826 30 15C30 6.71681 23.2826 0 15 0Z" fill="#9682AF"/>
</svg>
