<?xml version="1.0" encoding="utf-8"?>
<!-- Generator: Adobe Illustrator 25.1.0, SVG Export Plug-In . SVG Version: 6.00 Build 0)  -->
<svg version="1.1" id="Layer_1" xmlns="http://www.w3.org/2000/svg" xmlns:xlink="http://www.w3.org/1999/xlink" x="0px" y="0px"
	 viewBox="0 0 451.8 197.5" style="enable-background:new 0 0 451.8 197.5;" xml:space="preserve">
<style type="text/css">
	.st0{fill:#9682AF;}
	.st1{fill:#E195BD;}
	.st2{fill:#BDA8DD;}
	.st3{fill:#FFFFFF;}
</style>
<path class="st0" d="M13.4,176.2l10.8-21.4c10.6,7,26.7,11.9,41.8,11.9c17.8,0,25.2-5,25.2-13.3c0-22.9-74.2-1.4-74.2-49.2
	c0-22.7,20.5-37.5,52.8-37.5c16,0,34.2,3.8,45,10.3L104,98.4c-11.5-6.7-22.9-9-34.4-9c-17.1,0-25.2,5.6-25.2,13.5
	c0,24.3,74.2,2.7,74.2,49.7c0,22.5-20.7,37.1-54.4,37.1C44.2,189.7,24.2,183.8,13.4,176.2z"/>
<path class="st1" d="M302.9,68.1v120H331v-120L302.9,68.1z M317.1,14.6c-10.3,0-18,7.4-18,16.9s7.6,16.9,18,16.9
	c10.6,0,18-7.6,18-17.5C335.1,21.5,327.4,14.6,317.1,14.6L317.1,14.6z M275.1,28.4c6,0,11.9,1.9,16.8,5.4l8.6-23.2
	c-6.9-4.9-17-7.2-27.6-7.2c-30.6,0-47.3,18-47.3,45.6v139h30.8v-106h35.5V57.5h-36.2v-7.9C255.6,35.5,262.3,28.4,275.1,28.4
	L275.1,28.4z"/>
<path class="st2" d="M321,128.1c0,13.1,3.5,24.9,10,34.6V93.2C324.3,103.6,320.8,115.7,321,128.1z"/>
<path class="st2" d="M420.6,152.8l14.8,17.3c-10.6,12.8-27.4,19.6-48.1,19.6c-25.4,0-45.2-10.3-56.3-26.9V93.2
	c10.8-16.3,29.4-26.4,51.8-26.4c33.5,0,60.5,22.5,60.7,60l-91.9,18c5.8,13.7,18.9,21.1,36.4,21.1
	C401.5,165.8,411.8,161.6,420.6,152.8z"/>
<path class="st3" d="M106,124.8c0-36,27-61.4,63.8-61.4c37.3,0,64,25.4,64,61.4s-26.7,61.6-64,61.6C133,186.3,106,160.7,106,124.8z
	 M205.6,124.8c0-22.9-15.3-37.5-35.7-37.5c-20.2,0-35.5,14.6-35.5,37.5s15.3,37.5,35.5,37.5C190.3,162.3,205.6,147.7,205.6,124.8
	L205.6,124.8z"/>
</svg>
