<svg id="Layer_1" data-name="Layer 1" xmlns="http://www.w3.org/2000/svg" viewBox="0 0 553.49 523.93"><defs><style>.cls-1{fill:#9682af;}.cls-2{fill:#e195bd;}.cls-3{fill:#bda8dd;}.cls-4{fill:#ece5f6;}.cls-5{fill:#d1d4d1;}</style></defs><path class="cls-1" d="M17.9,448.06l13-25.67c12.7,8.38,32.15,14.32,50.26,14.32,21.35,0,30.27-5.94,30.27-15.94,0-27.57-89.18-1.62-89.18-59.18,0-27.3,24.59-45.13,63.5-45.13,19.19,0,41.08,4.59,54.05,12.43l-13,25.67c-13.78-8.11-27.56-10.81-41.35-10.81-20.53,0-30.26,6.76-30.26,16.22,0,29.18,89.18,3.24,89.18,59.72,0,27-24.87,44.59-65.4,44.59C54.93,464.28,30.88,457.25,17.9,448.06Z"/><path class="cls-2" d="M366,318.08v144.3h33.79V318.08Zm17-64.32c-12.44,0-21.62,8.92-21.62,20.27S370.55,294.3,383,294.3c12.7,0,21.62-9.19,21.62-21.08C404.61,262.14,395.42,253.76,383,253.76Zm-50.45,16.63a34.71,34.71,0,0,1,20.14,6.52l10.37-27.85c-8.29-5.93-20.44-8.6-33.18-8.6-36.74,0-56.88,21.63-56.88,54.82v167.1h37V335h42.66V305.35H309.13v-9.48C309.13,279,317.13,270.39,332.54,270.39Z"/><path class="cls-3" d="M387.72,390.23c0,15.81,4.25,30,12,41.64V348.25C392.07,359.91,387.72,374.23,387.72,390.23Z"/><path class="cls-3" d="M507.43,420l17.84,20.81c-12.7,15.4-33,23.5-57.83,23.5-30.58,0-54.35-12.41-67.69-32.4V348.25c12.93-19.66,35.32-31.79,62.29-31.79,40.26,0,72.69,27,73,72.15L424.47,410.23c7,16.48,22.7,25.41,43.78,25.41C484.46,435.64,496.89,430.5,507.43,420Z"/><path class="cls-4" d="M129.24,386.23c0-43.24,32.43-73.78,76.75-73.78,44.86,0,77,30.54,77,73.78s-32.16,74-77,74C161.67,460.27,129.24,429.46,129.24,386.23Zm119.72,0c0-27.57-18.38-45.13-43-45.13-24.32,0-42.7,17.56-42.7,45.13s18.38,45.13,42.7,45.13C230.58,431.36,249,413.79,249,386.23Z"/><path class="cls-5" d="M134.66,514.21a4.75,4.75,0,0,1-3.15-1c-.77-.65-1.15-1.82-1.15-3.5v-8h-2.53v-2.09h2.53l.33-3.49h2.14v3.49h4.29v2.09h-4.29v8a2.45,2.45,0,0,0,.56,1.87,3.07,3.07,0,0,0,2,.48h1.53v2.12Z"/><path class="cls-5" d="M147.36,514.56a5.47,5.47,0,0,1-4.12-1.57,6.71,6.71,0,0,1-1.53-4.84v-8.53h2.47v8.27c0,3,1.25,4.55,3.73,4.55a4.12,4.12,0,0,0,3.17-1.36,5.59,5.59,0,0,0,1.24-3.9v-7.56h2.47v14.59h-2.23l-.18-2.62a5.1,5.1,0,0,1-2,2.18A5.78,5.78,0,0,1,147.36,514.56Zm-.53-16.14v-1.85l6.17-3.74V495Z"/><path class="cls-5" d="M170.17,514.21V499.62h2.24l.2,2.8a5.32,5.32,0,0,1,2.06-2.3,6.46,6.46,0,0,1,3.41-.85v2.59h-.68a6,6,0,0,0-2.38.46,3.57,3.57,0,0,0-1.73,1.54,5.86,5.86,0,0,0-.65,3v7.35Z"/><path class="cls-5" d="M188.61,514.56a7.21,7.21,0,0,1-3.71-.95,6.74,6.74,0,0,1-2.54-2.67,8.23,8.23,0,0,1-.93-4,8.57,8.57,0,0,1,.91-4,6.63,6.63,0,0,1,2.55-2.67,7.26,7.26,0,0,1,3.77-1,6.75,6.75,0,0,1,3.66,1,6.42,6.42,0,0,1,2.37,2.51,7.06,7.06,0,0,1,.82,3.35c0,.22,0,.43,0,.65s0,.46,0,.73H183.87a5.73,5.73,0,0,0,.78,2.78,4.61,4.61,0,0,0,4,2.22,4.4,4.4,0,0,0,2.55-.7,4,4,0,0,0,1.5-1.91h2.44a6.41,6.41,0,0,1-6.49,4.7Zm0-13.2a5,5,0,0,0-3.14,1.07,4.35,4.35,0,0,0-1.57,3.13h9.17a4.13,4.13,0,0,0-1.35-3.08A4.5,4.5,0,0,0,188.61,501.36Z"/><path class="cls-5" d="M207.16,514.56a7.13,7.13,0,0,1-3.81-1,6.86,6.86,0,0,1-2.53-2.73,8.44,8.44,0,0,1-.9-3.94,8.26,8.26,0,0,1,.92-3.93,6.83,6.83,0,0,1,2.52-2.7,7.21,7.21,0,0,1,3.83-1,6.65,6.65,0,0,1,3.17.74,5.27,5.27,0,0,1,2.15,2.06v-9H215v21.17h-2.24l-.23-2.41a6.94,6.94,0,0,1-2,1.91A6,6,0,0,1,207.16,514.56Zm.26-2.15a4.88,4.88,0,0,0,2.6-.69,4.69,4.69,0,0,0,1.77-1.92,6.92,6.92,0,0,0,0-5.77,4.69,4.69,0,0,0-1.77-1.92,4.88,4.88,0,0,0-2.6-.69,4.82,4.82,0,0,0-2.57.69,4.76,4.76,0,0,0-1.77,1.92,6.92,6.92,0,0,0,0,5.77,4.76,4.76,0,0,0,1.77,1.92A4.82,4.82,0,0,0,207.42,512.41Z"/><path class="cls-5" d="M236.94,514.56a7.13,7.13,0,0,1-3.81-1,6.86,6.86,0,0,1-2.53-2.73,8.56,8.56,0,0,1-.89-3.94,8.26,8.26,0,0,1,.91-3.93,6.86,6.86,0,0,1,2.53-2.7,7.15,7.15,0,0,1,3.82-1,6.65,6.65,0,0,1,3.17.74,5.21,5.21,0,0,1,2.15,2.06v-9h2.47v21.17h-2.23l-.24-2.41a6.94,6.94,0,0,1-2,1.91A6,6,0,0,1,236.94,514.56Zm.26-2.15a4.94,4.94,0,0,0,2.61-.69,4.74,4.74,0,0,0,1.76-1.92,6.92,6.92,0,0,0,0-5.77,4.74,4.74,0,0,0-1.76-1.92,4.94,4.94,0,0,0-2.61-.69,4.85,4.85,0,0,0-2.57.69,4.74,4.74,0,0,0-1.76,1.92,6.92,6.92,0,0,0,0,5.77,4.74,4.74,0,0,0,1.76,1.92A4.85,4.85,0,0,0,237.2,512.41Z"/><path class="cls-5" d="M257.11,514.56a7.24,7.24,0,0,1-3.71-.95,6.8,6.8,0,0,1-2.54-2.67,8.23,8.23,0,0,1-.93-4,8.46,8.46,0,0,1,.92-4,6.54,6.54,0,0,1,2.54-2.67,7.33,7.33,0,0,1,3.78-1,6.79,6.79,0,0,1,3.66,1,6.39,6.39,0,0,1,2.36,2.51,7.07,7.07,0,0,1,.83,3.35c0,.22,0,.43,0,.65s0,.46,0,.73H252.37a5.73,5.73,0,0,0,.78,2.78,4.61,4.61,0,0,0,4,2.22,4.43,4.43,0,0,0,2.56-.7,4.13,4.13,0,0,0,1.5-1.91h2.44a6.66,6.66,0,0,1-2.25,3.36A6.59,6.59,0,0,1,257.11,514.56Zm0-13.2a5,5,0,0,0-3.13,1.07,4.35,4.35,0,0,0-1.58,3.13h9.18a4.14,4.14,0,0,0-1.36-3.08A4.5,4.5,0,0,0,257.11,501.36Z"/><path class="cls-5" d="M286.39,514.56a6.76,6.76,0,0,1-3.19-.73,5.1,5.1,0,0,1-2.13-2.06l-.24,2.44H278.6V493h2.47v9a6.87,6.87,0,0,1,2-1.92,6.11,6.11,0,0,1,3.34-.85,7.09,7.09,0,0,1,3.79,1,6.87,6.87,0,0,1,2.52,2.74,9.12,9.12,0,0,1,0,7.86,6.75,6.75,0,0,1-2.53,2.71A7.3,7.3,0,0,1,286.39,514.56Zm-.26-2.15a4.74,4.74,0,0,0,4.35-2.61,6.82,6.82,0,0,0,0-5.77,4.88,4.88,0,0,0-8.7,0,6.73,6.73,0,0,0,0,5.77,4.71,4.71,0,0,0,4.35,2.61Z"/><path class="cls-5" d="M300.33,496.39a1.66,1.66,0,0,1-1.71-1.7,1.55,1.55,0,0,1,.49-1.18,1.79,1.79,0,0,1,2.42,0,1.56,1.56,0,0,1,.5,1.18,1.67,1.67,0,0,1-1.7,1.7Zm-1.24,17.82V499.62h2.47v14.59Z"/><path class="cls-5" d="M314.17,514.56a7.2,7.2,0,0,1-3.7-.95,6.74,6.74,0,0,1-2.54-2.67,8.23,8.23,0,0,1-.93-4,8.45,8.45,0,0,1,.91-4,6.67,6.67,0,0,1,2.54-2.67,7.33,7.33,0,0,1,3.78-1,6.79,6.79,0,0,1,3.66,1,6.42,6.42,0,0,1,2.37,2.51,7.06,7.06,0,0,1,.82,3.35c0,.22,0,.43,0,.65s0,.46,0,.73H309.44a5.73,5.73,0,0,0,.78,2.78,4.58,4.58,0,0,0,3.95,2.22,4.41,4.41,0,0,0,2.56-.7,4,4,0,0,0,1.5-1.91h2.44a6.42,6.42,0,0,1-6.5,4.7Zm0-13.2a5,5,0,0,0-3.13,1.07,4.35,4.35,0,0,0-1.57,3.13h9.17a4.17,4.17,0,0,0-1.35-3.08A4.51,4.51,0,0,0,314.17,501.36Z"/><path class="cls-5" d="M326.11,514.21V499.62h2.24l.14,2.62a5.25,5.25,0,0,1,2-2.17,5.7,5.7,0,0,1,3-.8,5.56,5.56,0,0,1,4.13,1.57,6.68,6.68,0,0,1,1.54,4.84v8.53h-2.47V506q0-4.56-3.76-4.56a4,4,0,0,0-3.13,1.37,5.58,5.58,0,0,0-1.25,3.89v7.56Z"/><path class="cls-5" d="M351.25,514.56a7.24,7.24,0,0,1-3.71-.95,6.87,6.87,0,0,1-2.54-2.67,8.23,8.23,0,0,1-.93-4,8.46,8.46,0,0,1,.92-4,6.54,6.54,0,0,1,2.54-2.67,7.33,7.33,0,0,1,3.78-1,6.79,6.79,0,0,1,3.66,1,6.39,6.39,0,0,1,2.36,2.51,7.07,7.07,0,0,1,.83,3.35c0,.22,0,.43,0,.65s0,.46,0,.73H346.51a5.73,5.73,0,0,0,.78,2.78,4.61,4.61,0,0,0,4,2.22,4.43,4.43,0,0,0,2.56-.7,4.13,4.13,0,0,0,1.5-1.91h2.44a6.66,6.66,0,0,1-2.25,3.36A6.59,6.59,0,0,1,351.25,514.56Zm0-13.2a5,5,0,0,0-3.13,1.07,4.35,4.35,0,0,0-1.58,3.13h9.18a4.14,4.14,0,0,0-1.36-3.08A4.5,4.5,0,0,0,351.25,501.36Z"/><path class="cls-5" d="M368.77,514.56a7,7,0,0,1-4.35-1.32,5.16,5.16,0,0,1-2-3.59h2.53a3.43,3.43,0,0,0,1.22,2,4,4,0,0,0,2.66.84,3.35,3.35,0,0,0,2.29-.66,2,2,0,0,0,.74-1.57,1.76,1.76,0,0,0-1-1.77,13.08,13.08,0,0,0-2.69-.79,14.86,14.86,0,0,1-2.35-.68,5.43,5.43,0,0,1-2-1.24,2.91,2.91,0,0,1-.79-2.14,3.94,3.94,0,0,1,1.42-3.13,5.77,5.77,0,0,1,3.87-1.22,6,6,0,0,1,3.81,1.16,4.66,4.66,0,0,1,1.72,3.31h-2.44a2.56,2.56,0,0,0-1-1.75,3.42,3.42,0,0,0-2.16-.63,3.28,3.28,0,0,0-2,.56,1.76,1.76,0,0,0-.72,1.47,1.51,1.51,0,0,0,.92,1.38,9.94,9.94,0,0,0,2.52.85,24.09,24.09,0,0,1,2.57.72,5,5,0,0,1,2,1.27,3.42,3.42,0,0,1,.78,2.42,4,4,0,0,1-1.49,3.25A6.17,6.17,0,0,1,368.77,514.56Z"/><path class="cls-5" d="M384.76,514.21a4.73,4.73,0,0,1-3.14-1c-.77-.65-1.15-1.82-1.15-3.5v-8h-2.53v-2.09h2.53l.33-3.49h2.14v3.49h4.29v2.09h-4.29v8a2.45,2.45,0,0,0,.56,1.87,3.07,3.07,0,0,0,2,.48H387v2.12Z"/><path class="cls-5" d="M397,514.56a6.61,6.61,0,0,1-3-.62,4.24,4.24,0,0,1-1.8-1.64,4.45,4.45,0,0,1-.58-2.24,4,4,0,0,1,1.7-3.44,8,8,0,0,1,4.65-1.2h3.94v-.18a3.94,3.94,0,0,0-1-2.9,3.68,3.68,0,0,0-2.68-1,4.24,4.24,0,0,0-2.48.72,3.12,3.12,0,0,0-1.31,2.1h-2.53a4.71,4.71,0,0,1,1.07-2.67,6,6,0,0,1,2.31-1.66,7.45,7.45,0,0,1,2.94-.58,5.53,5.53,0,0,1,6.15,6v9h-2.21l-.15-2.62a5.73,5.73,0,0,1-1.8,2.1A5.31,5.31,0,0,1,397,514.56Zm.38-2.09a4,4,0,0,0,2.42-.73,4.76,4.76,0,0,0,1.55-1.91,6,6,0,0,0,.53-2.47v0h-3.74a4.84,4.84,0,0,0-3.07.75,2.33,2.33,0,0,0-.9,1.86,2.26,2.26,0,0,0,.84,1.84A3.64,3.64,0,0,0,397.38,512.47Z"/><path class="cls-5" d="M409.81,514.21V499.62h2.24l.2,2.8a5.32,5.32,0,0,1,2.06-2.3,6.46,6.46,0,0,1,3.41-.85v2.59h-.67a6,6,0,0,0-2.39.46,3.57,3.57,0,0,0-1.73,1.54,5.86,5.86,0,0,0-.65,3v7.35Z"/><path class="cls-4" d="M492.66,77c-.39-41.12-6.52-73.21-105-73.21C297.79,3.77,284.1,35.86,282.74,77c-.05,1.36-.08,2.74-.11,4.13v.06c0,1.39.06,2.77.11,4.13.09,2.82.24,5.59.47,8.31L265.44,100a3,3,0,0,0-.93,5L298.8,134.4v-.18c14.18,15,40.48,24.3,88.84,24.3,98.5,0,104.63-32.09,105-73.22,0-1.37,0-2.76,0-4.16S492.68,78.35,492.66,77ZM377.33,84.2a3.62,3.62,0,1,1,0-7.22,3.58,3.58,0,0,1,3.85,3.46A3.7,3.7,0,0,1,377.33,84.2Zm13.12,0a3.62,3.62,0,1,1,0-7.22,3.59,3.59,0,0,1,3.86,3.46A3.69,3.69,0,0,1,390.45,84.2Zm13.15,0a3.62,3.62,0,1,1,0-7.22,3.57,3.57,0,0,1,3.84,3.46A3.7,3.7,0,0,1,403.6,84.2Z"/><path class="cls-1" d="M272,181.36l-18.71-6.7c.19-2.56.33-5.18.4-7.82.06-1.36.08-2.74.11-4.13v-.06c0-1.39-.05-2.77-.11-4.13-1.28-41.13-14.36-73.22-100.14-73.22-94,0-99.88,32.09-100.26,73.22,0,1.37,0,2.76,0,4.16s0,2.79,0,4.16c.38,41.12,6.23,73.21,100.26,73.21,46.47,0,71.6-9.41,85.08-24.58v.32L273,186.37A3,3,0,0,0,272,181.36Zm-133.39-9.61a3.61,3.61,0,1,1,0-7.21,3.59,3.59,0,0,1,3.86,3.46A3.69,3.69,0,0,1,138.65,171.75Zm13.14,0a3.61,3.61,0,1,1,0-7.21,3.58,3.58,0,0,1,3.85,3.46A3.69,3.69,0,0,1,151.79,171.75Zm13.14,0a3.61,3.61,0,1,1,0-7.21,3.58,3.58,0,0,1,3.84,3.46A3.69,3.69,0,0,1,164.93,171.75Z"/></svg>